<?xml version="1.0" encoding="UTF-8" standalone="no"?>
<!-- Created with Inkscape (http://www.inkscape.org/) -->

<svg
   width="796.90607"
   height="500.88568"
   viewBox="0 0 210.84806 132.526"
   version="1.1"
   id="svg1"
   xml:space="preserve"
   xmlns="http://www.w3.org/2000/svg"
   xmlns:svg="http://www.w3.org/2000/svg"><defs
     id="defs1" /><g
     id="layer1"
     transform="translate(0.84804529,-2.6834187)"><g
       id="g4"
       transform="matrix(0.26458333,0,0,0.26458333,-5.2822952e-5,-4.5591408e-6)"><g
         id="g6"
         transform="matrix(1.0029164,0,0,1.0029164,-3.2050009,10.142073)"
         style="stroke-width:0.997088"><g
           id="g7"><path
             d="m 516.25856,599.337 h -310.357 a 3.19945,3.19945 0 0 1 -3.19589,-3.1959 V 293.59634 a 3.19945,3.19945 0 0 1 3.19589,-3.1959 h 310.357 a 3.19939,3.19939 0 0 1 3.19589,3.1959 v 302.54479 a 3.19939,3.19939 0 0 1 -3.19589,3.19587 z"
             transform="translate(-202.70568,-200.28543)"
             fill="#f0f0f0"
             id="path1-0"
             style="stroke-width:0.997088" /><path
             d="M 482.5241,318.09821 H 239.636 a 3.2007,3.2007 0 0 0 -3.1959,3.19589 v 188.20275 a 3.20074,3.20074 0 0 0 3.1959,3.1959 h 242.8881 a 3.20074,3.20074 0 0 0 3.1959,-3.1959 V 321.2941 a 3.2007,3.2007 0 0 0 -3.1959,-3.19589 z"
             transform="translate(-202.70568,-200.28543)"
             fill="#ffffff"
             id="path2-9"
             style="stroke-width:0.997088" /><path
             d="M 468.67522,549.6231 H 253.48491 a 1.77759,1.77759 0 0 1 -1.7755,-1.7755 v -9.94279 a 1.77759,1.77759 0 0 1 1.7755,-1.7755 h 215.19031 a 1.77759,1.77759 0 0 1 1.7755,1.7755 v 9.94279 a 1.77759,1.77759 0 0 1 -1.7755,1.7755 z"
             transform="translate(-202.70568,-200.28543)"
             fill="#ffffff"
             id="path3-4"
             style="stroke-width:0.997088" /><path
             d="M 394.10432,573.76986 H 253.48491 a 1.77758,1.77758 0 0 1 -1.7755,-1.77549 v -9.94279 a 1.77759,1.77759 0 0 1 1.7755,-1.7755 h 140.61941 a 1.77759,1.77759 0 0 1 1.7755,1.7755 v 9.94279 a 1.77758,1.77758 0 0 1 -1.7755,1.77549 z"
             transform="translate(-202.70568,-200.28543)"
             fill="#ffffff"
             id="path4-8"
             style="stroke-width:0.997088" /><circle
             cx="152.37389"
             cy="214.46016"
             r="30.882139"
             fill="#ffb8b8"
             id="circle4"
             style="stroke-width:0.997088" /><polygon
             points="163.992,253.39 173.054,262.168 173.786,262.878 193.082,281.372 197.556,312.407 129.086,312.407 131.323,262.068 131.856,261.507 139.54,253.39 "
             fill="#6c63ff"
             id="polygon4"
             style="fill:#069494;fill-opacity:1;stroke-width:0.997088" /><path
             d="m 343.56644,512.69275 h -51.80187 c -0.12762,-11.36319 -0.19871,-18.16691 -0.19871,-18.16691 l 2.99685,-1.82521 a 0.02235,0.02235 0 0 1 0.0142,-0.007 h 0.007 l 33.01,-20.0418 6.93137,-11.25668 0.0357,0.39771 2.03836,23.72777 c 0,0 3.3662,10.88026 6.96678,27.17223 z"
             transform="translate(-202.70568,-200.28543)"
             fill="#2f2e41"
             id="path5-8"
             style="stroke-width:0.997088" /><path
             d="m 430.62981,512.69275 h -54.87 c 0.83088,-33.13792 -3.64324,-51.29771 -1.342,-51.29771 l 1.342,1.05823 16.17125,12.76937 21.31325,7.8193 h 0.0142 l 14.694,5.39038 2.57794,0.94458 v 1.21445 c 0.007,2.9118 0.0213,10.87315 0.0993,22.1014 z"
             transform="translate(-202.70568,-200.28543)"
             fill="#2f2e41"
             id="path6-2"
             style="stroke-width:0.997088" /><path
             d="m 325.86329,424.40756 c 0,0 2.62386,-4.6079 2.01386,-20.00134 -0.61,-15.39344 22.83053,-6.6871 42.41754,-8.15555 19.58701,-1.46845 15.44079,25.69973 15.44079,25.69973 0,0 1.41309,-1.615 4.43848,-14.72716 3.02539,-13.11216 -3.84387,-26.179 -3.84387,-26.179 -2.0231,-13.77843 -12.92622,-9.36244 -12.92622,-9.36244 5.25081,2.04409 4.24233,6.41481 4.24233,6.41481 -4.44463,-7.79263 -15.34775,-3.37663 -15.34775,-3.37663 -14.54162,-9.12521 -29.27939,2.89155 -29.27939,2.89155 -17.567,3.98691 -7.26462,17.95721 -7.26462,17.95721 -17.66662,8.92795 0.10885,28.83882 0.10885,28.83882 z"
             transform="translate(-202.70568,-200.28543)"
             fill="#2f2e41"
             id="path7-4"
             style="stroke-width:0.997088" /><path
             d="m 298.68207,512.69275 h -21.28482 a 64.17769,64.17769 0 0 0 0.0142,-7.87613 c -1.27128,-5.06372 16.61165,-11.91 17.15124,-12.116 a 0.02235,0.02235 0 0 1 0.0142,-0.007 h 0.007 l 3.40882,1.83232 z"
             transform="translate(-202.70568,-200.28543)"
             fill="#2f2e41"
             id="path8-5"
             style="stroke-width:0.997088" /><path
             d="M 434.4721,512.69275 H 412.11487 L 409.324,485.137 l 3.13174,-2.28686 c 0,0 0.28436,0.0639 0.78857,0.19177 h 0.0142 c 2.50685,0.61787 10.26217,2.66324 14.694,5.39038 a 9.10373,9.10373 0 0 1 2.57794,2.159 2.66156,2.66156 0 0 1 0.61067,1.88912 c -0.11358,1.02985 1.19325,8.61477 3.33096,20.21234 z"
             transform="translate(-202.70568,-200.28543)"
             fill="#2f2e41"
             id="path9-5"
             style="stroke-width:0.997088" /><path
             d="m 994.09843,509.222 h -310.357 a 3.19945,3.19945 0 0 1 -3.19589,-3.1959 V 203.48133 a 3.19945,3.19945 0 0 1 3.19589,-3.1959 h 310.357 a 3.19939,3.19939 0 0 1 3.19589,3.1959 v 302.54479 a 3.19939,3.19939 0 0 1 -3.19589,3.19588 z"
             transform="translate(-202.70568,-200.28543)"
             fill="#f0f0f0"
             id="path10-1"
             style="stroke-width:0.997088" /><path
             d="M 960.36421,227.98381 H 717.47614 a 3.20073,3.20073 0 0 0 -3.1959,3.19589 v 188.20275 a 3.20073,3.20073 0 0 0 3.1959,3.19589 h 242.88807 a 3.20073,3.20073 0 0 0 3.1959,-3.19589 V 231.1797 a 3.20073,3.20073 0 0 0 -3.1959,-3.19589 z"
             transform="translate(-202.70568,-200.28543)"
             fill="#ffffff"
             id="path11-7"
             style="stroke-width:0.997088" /><path
             d="M 946.51509,459.50809 H 731.32478 a 1.77759,1.77759 0 0 1 -1.7755,-1.7755 v -9.94279 a 1.77759,1.77759 0 0 1 1.7755,-1.7755 h 215.19031 a 1.77759,1.77759 0 0 1 1.7755,1.7755 v 9.94279 a 1.77759,1.77759 0 0 1 -1.7755,1.7755 z"
             transform="translate(-202.70568,-200.28543)"
             fill="#ffffff"
             id="path12-1"
             style="stroke-width:0.997088" /><path
             d="M 871.94419,483.65485 H 731.32478 a 1.77758,1.77758 0 0 1 -1.7755,-1.77549 v -9.94279 a 1.77759,1.77759 0 0 1 1.7755,-1.7755 h 140.61941 a 1.77759,1.77759 0 0 1 1.7755,1.7755 v 9.94279 a 1.77758,1.77758 0 0 1 -1.7755,1.77549 z"
             transform="translate(-202.70568,-200.28543)"
             fill="#ffffff"
             id="path13-1"
             style="stroke-width:0.997088" /><path
             d="m 898.70472,422.57835 c 1.37068,-4.93588 2.436,-9.19 2.98283,-12.20122 a 8.70167,8.70167 0 0 0 0.0497,-2.81239 c -2.04538,-14.552 -38.98993,-26.85262 -43.727,-28.37245 l -1.14342,-12.67 -46.50383,-5.0069 -5.88755,16.20674 -16.68964,6.25687 a 7.95019,7.95019 0 0 0 -1.71158,0.88065 8.2627,8.2627 0 0 0 -3.40185,8.81357 l 7.10909,28.9051 H 898.7047 Z"
             transform="translate(-202.70568,-200.28543)"
             fill="#6c63ff"
             id="path14-5"
             style="fill:#069494;fill-opacity:1;stroke-width:0.997088" /><path
             d="M 802.30227,422.57834 H 766.217 c 1.29262,-8.05367 2.45033,-15.177 3.20318,-19.708 2.75549,-16.49084 14.772,-17.897 16.654,-18.01064 0.14929,-0.0142 0.24153,-0.0142 0.24864,-0.0142 h 7.592 z"
             transform="translate(-202.70568,-200.28543)"
             fill="#6c63ff"
             id="path15-2"
             style="fill:#069494;fill-opacity:1;stroke-width:0.997088" /><path
             d="m 898.70472,422.57835 h 8.74965 c -0.77412,-7.10909 -3.23141,-11.89583 -5.7171,-15.01361 a 17.93616,17.93616 0 0 0 -6.25686,-5.20576 l -0.66048,-0.28408 -7.69146,20.50345 z"
             transform="translate(-202.70568,-200.28543)"
             fill="#6c63ff"
             id="path16-7"
             style="fill:#069494;fill-opacity:1;stroke-width:0.997088" /><circle
             id="e1a103b7-8d34-421f-afc4-5b4214dc85b9"
             data-name="Ellipse 109"
             cx="629.09235"
             cy="119.72704"
             r="33.483509"
             fill="#a0616a"
             style="stroke-width:0.997088" /><path
             id="b2c74153-0538-46ec-992c-20d14033c946-589"
             data-name="Path 696"
             d="m 809.32366,303.69955 c 3.46635,4.1021 9.33139,5.25905 14.74249,5.72953 10.98965,0.9641 26.9684,-0.5994 37.70795,-3.07852 0.77129,7.42854 -1.32221,15.43883 3.05209,21.55068 a 100.04907,100.04907 0 0 0 3.55451,-22.68008 c 0.13222,-3.29006 0.0804,-6.69363 -1.2561,-9.71375 -1.33654,-3.02012 -4.25305,-5.58406 -7.61032,-5.61053 a 19.07377,19.07377 0 0 1 8.50832,-3.636 l -10.63155,-5.34277 2.73037,-2.80307 -19.24786,-1.17785 5.57525,-3.54127 a 120.88934,120.88934 0 0 0 -25.33556,-0.79658 c -3.92251,0.28867 -8.02351,0.84069 -11.20122,3.11376 -3.17771,2.27307 -5.01446,6.78946 -3.04106,10.12582 a 14.7028,14.7028 0 0 0 -11.20452,8.89066 c -1.417,3.592 -1.287,7.58171 -0.85058,11.40946 a 80.86726,80.86726 0 0 0 4.23987,17.9389"
             transform="translate(-202.70568,-200.28543)"
             fill="#2f2e41"
             style="stroke-width:0.997088" /><path
             d="m 761.08349,699.71457 h -310.357 a 3.19945,3.19945 0 0 1 -3.1959,-3.1959 V 393.97388 a 3.19945,3.19945 0 0 1 3.1959,-3.1959 h 310.357 a 3.1994,3.1994 0 0 1 3.1959,3.1959 v 302.54479 a 3.1994,3.1994 0 0 1 -3.1959,3.1959 z"
             transform="translate(-202.70568,-200.28543)"
             fill="#e4e4e4"
             id="path17-6"
             style="stroke-width:0.997088" /><path
             d="M 727.34927,418.47635 H 484.4612 a 3.20074,3.20074 0 0 0 -3.1959,3.1959 V 609.875 a 3.20073,3.20073 0 0 0 3.1959,3.19589 h 242.88807 a 3.20073,3.20073 0 0 0 3.1959,-3.19589 V 421.67225 a 3.20074,3.20074 0 0 0 -3.1959,-3.1959 z"
             transform="translate(-202.70568,-200.28543)"
             fill="#ffffff"
             id="path18-1"
             style="stroke-width:0.997088" /><path
             d="M 713.50016,650.00063 H 498.30984 a 1.77758,1.77758 0 0 1 -1.77549,-1.77549 v -9.94279 a 1.77758,1.77758 0 0 1 1.77549,-1.7755 h 215.19032 a 1.77758,1.77758 0 0 1 1.77549,1.7755 v 9.94279 a 1.77758,1.77758 0 0 1 -1.77549,1.77549 z"
             transform="translate(-202.70568,-200.28543)"
             fill="#ffffff"
             id="path19-4"
             style="stroke-width:0.997088" /><path
             d="M 638.92926,674.1474 H 498.30984 a 1.77758,1.77758 0 0 1 -1.77549,-1.7755 v -9.94278 a 1.77758,1.77758 0 0 1 1.77549,-1.7755 h 140.61942 a 1.77758,1.77758 0 0 1 1.77549,1.7755 v 9.94278 a 1.77758,1.77758 0 0 1 -1.77549,1.7755 z"
             transform="translate(-202.70568,-200.28543)"
             fill="#ffffff"
             id="path20-2"
             style="stroke-width:0.997088" /><path
             d="m 629.80337,613.07089 h -48.88289 l 3.04661,-45.72261 17.6343,4.06942 17.15124,-6.5977 0.45462,-0.17044 0.0284,-0.0142 a 0.22939,0.22939 0 0 1 0.0142,0.0426 c 0.26979,1.0866 5.65315,22.64112 10.55346,48.39294 z"
             transform="translate(-202.70568,-200.28543)"
             fill="#6c63ff"
             id="path21"
             style="fill:#069494;fill-opacity:1;stroke-width:0.997088" /><polygon
             points="416.544,364.392 426.707,371.807 456.557,374.527 451.99,412.785 410.792,412.785 416.047,364.535 416.097,364.066 416.502,364.364 "
             fill="#2f2e41"
             id="polygon21-3"
             style="stroke-width:0.997088" /><path
             d="m 588.15026,613.07089 h -36.8948 l -0.53265,-30.11956 27.15089,-9.00533 6.09339,-6.59773 c 0,0 1.92479,19.85008 4.18317,45.72262 z"
             transform="translate(-202.70568,-200.28543)"
             fill="#2f2e41"
             id="path22-2"
             style="stroke-width:0.997088" /><path
             d="m 677.02467,613.07089 h -30.57428 l 1.96033,-27.4066 10.85169,-10.85182 c 0,0 8.58637,18.01064 17.76226,38.25842 z"
             transform="translate(-202.70568,-200.28543)"
             fill="#2f2e41"
             id="path23-2"
             style="stroke-width:0.997088" /><path
             d="m 559.95539,613.07089 h -16.12876 c 0.0711,-8.77805 0.11374,-14.84317 0.11374,-16.55473 a 15.98654,15.98654 0 0 1 6.78244,-13.56483 l 8.146,2.713 z"
             transform="translate(-202.70568,-200.28543)"
             fill="#2f2e41"
             id="path24-1"
             style="stroke-width:0.997088" /><path
             d="m 557.43925,520.28323 a 42.96378,42.96378 0 0 1 21.07323,-36.82585 c 13.59583,-8.02635 29.99925,-7.88091 45.00347,0.397 10.69,5.89872 19.38714,20.74062 19.38714,33.08545 v 36.0207 h -85.46384 z"
             transform="translate(-202.70568,-200.28543)"
             fill="#2f2e41"
             id="path25-6"
             style="stroke-width:0.997088" /><circle
             cx="598.47876"
             cy="521.20386"
             r="30.86882"
             transform="rotate(-28.66316,105.15326,817.77053)"
             fill="#ffb8b8"
             id="circle25"
             style="stroke-width:0.997088" /><path
             d="m 566.28793,521.49586 c -0.23381,-0.27 -0.78152,-0.90272 3.02607,-30.20114 l 0.1209,-0.47867 h 0.34427 c 19.30031,-9.4949 38.88168,-9.73362 58.20469,-0.7131 a 3.80191,3.80191 0 0 1 2.15526,3.07639 c 2.255,27.52671 1.71,28.12689 1.47713,28.38341 a 3.78007,3.78007 0 0 1 -2.79041,1.23412 h -8.56149 l -0.1795,-0.32341 a 88.35362,88.35362 0 0 0 -4.83152,-7.946 70.52683,70.52683 0 0 0 -1.97268,7.76922 l -0.10433,0.50015 h -44.03875 a 3.76933,3.76933 0 0 1 -2.84964,-1.30097 z"
             transform="translate(-202.70568,-200.28543)"
             fill="#2f2e41"
             id="path26-8"
             style="stroke-width:0.997088" /></g></g></g></g></svg>
