<?xml version="1.0" encoding="UTF-8" standalone="no"?>
<svg
   width="1030.5747"
   height="696.9776"
   viewBox="0 0 1030.5747 696.97762"
   role="img"
   artist="Katerina Limpitsouni"
   source="https://undraw.co/"
   version="1.1"
   id="svg32"
   xmlns="http://www.w3.org/2000/svg"
   xmlns:svg="http://www.w3.org/2000/svg">
  <defs
     id="defs32" />
  <title
     id="title1">i can fly</title>
  <g
     id="g32">
    <path
       d="m 831.93752,263.72788 a 60.64529,60.64529 0 0 1 60.56127,-57.47579 c 1.84313,0 3.66317,0.0961 5.46442,0.25711 a 80.5744,80.5744 0 0 1 139.28389,-0.0659 c 1.5196,-0.11413 3.0495,-0.19125 4.5982,-0.19125 a 60.6453,60.6453 0 0 1 60.5613,57.47579"
       transform="translate(-84.96231,-101.26125)"
       fill="#f2f2f2"
       id="path1" />
    <path
       d="M 844.5686,259.06279 A 60.64529,60.64529 0 0 1 905.12987,201.587 c 1.84313,0 3.66317,0.0961 5.46442,0.25711 a 80.5744,80.5744 0 0 1 139.28391,-0.0659 c 1.5196,-0.11413 3.0494,-0.19125 4.5982,-0.19125 a 60.6453,60.6453 0 0 1 60.5613,57.47579"
       transform="translate(-84.96231,-101.26125)"
       fill="none"
       stroke="#3f3d56"
       stroke-miterlimit="10"
       id="path2" />
    <path
       d="m 155.9876,605.48825 c 5.45455,-105.97956 93.1087,-190.23237 200.44463,-190.23237 6.10037,0 12.12431,0.31815 18.08607,0.851 a 266.68374,266.68374 0 0 1 460.99935,-0.218 c 5.0296,-0.37777 10.093,-0.633 15.21919,-0.633 107.33593,0 194.99006,84.25281 200.44466,190.23237"
       transform="translate(-84.96231,-101.26125)"
       fill="#f2f2f2"
       id="path3" />
    <path
       d="m 197.79373,590.04781 c 5.45455,-105.97956 93.1087,-190.23237 200.44464,-190.23237 6.10036,0 12.1243,0.31815 18.08606,0.851 a 266.68374,266.68374 0 0 1 460.99935,-0.21795 c 5.0296,-0.37777 10.093,-0.633 15.21919,-0.633 107.33593,0 194.99013,84.25281 200.44463,190.23237"
       transform="translate(-84.96231,-101.26125)"
       fill="none"
       stroke="#3f3d56"
       stroke-miterlimit="10"
       id="path4" />
    <path
       d="m 84.96231,239.72788 a 82.05654,82.05654 0 0 1 81.94283,-77.768 c 2.49387,0 4.95648,0.13007 7.39368,0.34789 a 109.02172,109.02172 0 0 1 188.459,-0.0891 c 2.05613,-0.15444 4.12609,-0.25879 6.22169,-0.25879 a 82.05654,82.05654 0 0 1 81.94283,77.768"
       transform="translate(-84.96231,-101.26125)"
       fill="#f2f2f2"
       id="path5" />
    <path
       d="m 102.05288,233.41575 a 82.05654,82.05654 0 0 1 81.94283,-77.768 c 2.49386,0 4.95648,0.13007 7.39368,0.34788 a 109.02173,109.02173 0 0 1 188.459,-0.0891 c 2.05613,-0.15443 4.12609,-0.25878 6.22169,-0.25878 a 82.05654,82.05654 0 0 1 81.94283,77.768"
       transform="translate(-84.96231,-101.26125)"
       fill="none"
       stroke="#3f3d56"
       stroke-miterlimit="10"
       id="path6" />
    <path
       d="m 495.9876,336.92106 c 0,0 14,34 -7,42 0,0 30,13 37,10 7,-3 12,-10 12,-12 0,-2 -7,-3 -7,-3 0,0 -13,1 -3,-32 z"
       transform="translate(-84.96231,-101.26125)"
       fill="#fbbebe"
       id="path7" />
    <circle
       cx="427.0253"
       cy="228.65981"
       r="25"
       fill="#fbbebe"
       id="circle7" />
    <ellipse
       cx="410.5253"
       cy="223.15981"
       rx="22"
       ry="31"
       fill="#ff6584"
       id="ellipse7" />
    <ellipse
       cx="394.5253"
       cy="213.15981"
       rx="22"
       ry="31"
       fill="#ff6584"
       id="ellipse8" />
    <ellipse
       cx="372.5253"
       cy="190.65981"
       rx="11"
       ry="15.5"
       fill="#ff6584"
       id="ellipse9" />
    <path
       d="m 536.9876,372.92106 c 0,0 6,-12 28,-18 22,-6 65,-78 65,-78 0,0 -2,-43 8,-30 10,13 2,39 2,39 l -25.80418,44.57085 a 97.08358,97.08358 0 0 1 -17.8724,22.42615 c -15.95376,14.84942 -44.459,41.003 -47.32342,41.003 -4,0 -12,-21 -12,-21 z"
       transform="translate(-84.96231,-101.26125)"
       fill="#fbbebe"
       id="path9" />
    <path
       d="m 501.9876,543.92106 c 0,0 7,85 5,93 -2,8 -8,24 2,71 10,47 -2,44 -2,44 l 32,14 c 0,0 -11,-54 -9,-69 2,-15 1,-46 7,-67 6,-21 7,-80 7,-80 z"
       transform="translate(-84.96231,-101.26125)"
       fill="#fbbebe"
       id="path10" />
    <path
       d="m 501.9876,543.92106 c 0,0 7,85 5,93 -2,8 -8,24 2,71 10,47 -2,44 -2,44 l 32,14 c 0,0 -11,-54 -9,-69 2,-15 1,-46 7,-67 6,-21 7,-80 7,-80 z"
       transform="translate(-84.96231,-101.26125)"
       opacity="0.1"
       id="path11" />
    <path
       d="m 537.74261,755.1021 c -2.47934,1.72219 -8.84818,3.47 -20.755,-9.181 0,0 -7,-10 -13,0 -6,10 -2,11 2,16 3.86133,4.82665 34.74673,37.60925 47.6783,36.27827 a 6.16621,6.16621 0 0 0 1.3217,-0.27827 c 12,-4 -5,-17 -5,-17 0,0 -11.14536,-17.14671 -11.20891,-25.24382 a 0.66759,0.66759 0 0 0 -1.03609,-0.57518 z"
       transform="translate(-84.96231,-101.26125)"
       fill="#3f3d56"
       id="path12" />
    <path
       d="m 477.9876,533.92106 c 0,0 -17,39 -24,59 -3.675,10.5 -14.79187,13.83375 -24.52373,14.63175 a 83.87385,83.87385 0 0 0 -34.26925,10.32726 c -13.99626,7.85614 -33.09469,16.77132 -45.207,15.041 -21,-3 -4,30 -4,30 0,0 31,-19 60,-21 29,-2 60,-5 74,-23 14,-18 48,-75 48,-75 z"
       transform="translate(-84.96231,-101.26125)"
       fill="#fbbebe"
       id="path13" />
    <path
       d="m 346.9876,657.92106 c 0,0 -10,-7 -2,-14 8,-7 11,-13 11,-13 0,0 -14,-15 -19,-7 -5,8 -27,44 -22,55 5,11 10,14 16,2 6,-12 21.13216,-21.44741 21.13216,-21.44741 z"
       transform="translate(-84.96231,-101.26125)"
       fill="#3f3d56"
       id="path14" />
    <path
       d="m 532.9876,377.92106 c 0,0 -3.32428,6.64857 -34.217,0.24731 a 18.97584,18.97584 0 0 0 -20.908,9.75269 c -3.875,7.75 -4.375,19 9.125,33 0,0 24,27 12,38 -12,11 57,-7 57,-7 0,0 -9,-6 -1,-24 6.28572,-14.14286 5.78061,-22.11225 0.91,-28.27369 a 30.88363,30.88363 0 0 1 -5.83871,-13.04832 c -1.36549,-6.69413 -4.73864,-15.08281 -13.07128,-15.678 0,0 -8.75922,-0.513 -9.37961,1.74348 -0.62039,2.25648 7.3796,4.25653 5.3796,5.25653 z"
       transform="translate(-84.96231,-101.26125)"
       fill="#6c63ff"
       id="path15"
       style="fill:#069494;fill-opacity:1" />
    <path
       d="m 496.42583,399.13443 c -0.20653,-1.4101 -0.45929,-2.81119 -0.63632,-4.2253 -0.60438,-4.82791 -2.89964,-16.52583 -10.84061,-14.513 -9.9613,2.52494 -20.9613,27.52494 -20.9613,27.52494 0,0 -9,28 -22,35 -13,7 -49,43 -49,43 0,0 -30,8 -19,16 11,8 25,-5 25,-5 L 434.3561,475.7 a 101.249,101.249 0 0 0 31.196,-29.33114 c 7.36824,-10.67142 16.59508,-23.00458 22.442,-27.07969 a 19.27945,19.27945 0 0 0 7.55716,-9.8792 22.9342,22.9342 0 0 0 0.87457,-10.27554 z"
       transform="translate(-84.96231,-101.26125)"
       fill="#fbbebe"
       id="path16" />
    <path
       d="m 504.9876,456.92106 c 0,0 -46,-6 -72,25 -26,31 -45,22 -43,27 2,5 98,64 154,57 34.0927,-4.26159 52.24808,-8.15254 61.23541,-10.54465 a 17.445,17.445 0 0 0 9.64045,-6.46652 17.70419,17.70419 0 0 1 4.8741,-4.4263 8.65554,8.65554 0 0 0 2.32826,-12.21235 c -15.85981,-22.94586 -58.91668,-83.72865 -71.07822,-85.35018 -15,-2 -46,10 -46,10 z"
       transform="translate(-84.96231,-101.26125)"
       fill="#6c63ff"
       id="path17"
       style="fill:#069494;fill-opacity:1" />
    <ellipse
       cx="427.5253"
       cy="201.65981"
       rx="16"
       ry="11.5"
       fill="#ff6584"
       id="ellipse17" />
    <path
       d="m 831.80443,200.44953 a 113.38769,113.38769 0 0 1 4.17018,-15.5535 c 1.80736,-4.94254 4.09325,-9.15909 6.64158,-9.15909 6.17815,0 -21.62352,-26.25714 -21.62352,-26.25714 0,0 -1.74515,3.24349 -4.63361,7.61456 a 107.69871,107.69871 0 0 1 -6.9195,9.42164 51.65324,51.65324 0 0 1 -11.615,10.76547 c -12.35625,7.72269 33.97987,23.16806 33.97987,23.16806 z"
       transform="translate(-84.96231,-101.26125)"
       fill="#a0616a"
       id="path18" />
    <path
       d="m 913.60129,302.8337 c 0,0 61.93712,39.13288 42.853,45.5631 -19.08412,6.43022 -50.70024,-39.54394 -50.70024,-39.54394 z"
       transform="translate(-84.96231,-101.26125)"
       fill="#a0616a"
       id="path19" />
    <path
       d="m 830.5248,213.9466 c 0,0 29.66413,21.631 38.33346,38.08562 8.66933,16.45462 53.7408,53.01994 53.7408,53.01994 0,0 -9.30555,18.38594 -13.80443,17.2767 -4.49888,-1.10924 -97.25063,-70.11075 -107.00863,-75.69821 -9.758,-5.58746 5.11449,-40.09957 28.7388,-32.68405 z"
       transform="translate(-84.96231,-101.26125)"
       fill="#6c63ff"
       id="path20"
       style="fill:#069494;fill-opacity:1" />
    <path
       d="m 830.5248,213.9466 c 0,0 29.66413,21.631 38.33346,38.08562 8.66933,16.45462 53.7408,53.01994 53.7408,53.01994 0,0 -9.30555,18.38594 -13.80443,17.2767 -4.49888,-1.10924 -97.25063,-70.11075 -107.00863,-75.69821 -9.758,-5.58746 5.11449,-40.09957 28.7388,-32.68405 z"
       opacity="0.1"
       id="path21"
       transform="translate(-84.96231,-101.26125)" />
    <path
       d="m 918.29852,252.9638 c 0,0 69.50418,23.16806 52.51427,33.97982 -16.98991,10.81176 -58.69242,-26.25713 -58.69242,-26.25713 z"
       transform="translate(-84.96231,-101.26125)"
       fill="#a0616a"
       id="path22" />
    <path
       d="m 873.50694,569.59394 c 0,0 29.34621,-12.35629 26.25713,6.17815 -3.08908,18.53444 -16.98991,35.52436 -16.98991,44.79158 0,9.26722 -26.25713,29.34621 -30.89075,24.7126 -4.63362,-4.63361 7.72269,-23.16806 4.63362,-33.97982 -3.08907,-10.81176 -6.17815,-35.52436 -6.17815,-35.52436 z"
       transform="translate(-84.96231,-101.26125)"
       fill="#55536e"
       id="path23" />
    <path
       d="m 873.50694,569.59394 c 0,0 29.34621,-12.35629 26.25713,6.17815 -3.08908,18.53444 -16.98991,35.52436 -16.98991,44.79158 0,9.26722 -26.25713,29.34621 -30.89075,24.7126 -4.63362,-4.63361 7.72269,-23.16806 4.63362,-33.97982 -3.08907,-10.81176 -6.17815,-35.52436 -6.17815,-35.52436 z"
       transform="translate(-84.96231,-101.26125)"
       opacity="0.1"
       id="path24" />
    <path
       d="m 864.23971,583.49478 c 0,0 29.34621,-12.3563 26.25714,6.17815 -3.08907,18.53445 -16.98991,35.52436 -16.98991,44.79158 0,9.26722 -26.25714,29.34621 -30.89075,24.7126 -4.63361,-4.63361 7.72269,-23.16806 4.63361,-33.97982 -3.08908,-10.81176 -6.17815,-35.52436 -6.17815,-35.52436 z"
       transform="translate(-84.96231,-101.26125)"
       fill="#55536e"
       id="path25" />
    <path
       d="m 796.28007,470.74356 c 0,0 91.1277,86.49409 88.03863,94.21677 -3.08907,7.72268 -23.16806,24.7126 -23.16806,24.7126 0,0 -69.50418,-91.1277 -64.87057,-118.92937 z"
       transform="translate(-84.96231,-101.26125)"
       fill="#3f3d56"
       id="path26" />
    <path
       d="m 796.28007,470.74356 c 0,0 91.1277,86.49409 88.03863,94.21677 -3.08907,7.72268 -23.16806,24.7126 -23.16806,24.7126 0,0 -69.50418,-91.1277 -64.87057,-118.92937 z"
       transform="translate(-84.96231,-101.26125)"
       opacity="0.1"
       id="path27" />
    <path
       d="m 774.65655,314.74529 c 0,0 23.16806,23.16806 16.98991,67.95964 -6.17815,44.79158 4.63361,88.03863 16.98991,101.93946 12.3563,13.90083 63.326,94.21678 63.326,94.21678 0,0 -21.62352,35.52435 -38.61343,16.98991 -16.98991,-18.53444 -67.95964,-94.21678 -67.95964,-94.21678 0,0 -46.33609,-91.1277 -50.9697,-115.8403 -4.63361,-24.7126 -6.17815,-63.326 6.17815,-71.04872 12.3563,-7.72272 54.0588,1e-5 54.0588,1e-5 z"
       transform="translate(-84.96231,-101.26125)"
       fill="#3f3d56"
       id="path28" />
    <path
       d="m 812.96108,161.97511 c 18.04019,3.73778 16.24853,4.46371 27.33831,8.356 0.0618,-0.18535 0.12356,-0.3398 0.18534,-0.49426 1.699,-4.04668 2.76472,1.26653 5.22054,1.26653 6.17814,0 -21.62353,-26.25714 -21.62353,-26.25714 0,0 -1.05028,1.94612 -2.85739,4.86529 -0.54059,0.8495 -1.12751,1.77622 -1.77622,2.74928 -0.54059,0.8186 -1.12751,1.68355 -1.74533,2.57938 z"
       transform="translate(-84.96231,-101.26125)"
       opacity="0.1"
       id="path29" />
    <circle
       cx="760.74292"
       cy="52.852169"
       r="29.34621"
       fill="#a0616a"
       id="circle29" />
    <path
       d="m 791.64646,175.73694 c 0,0 44.79158,4.63361 54.05881,24.71259 9.26723,20.07898 -57.14788,117.38484 -61.7815,118.92937 -4.63362,1.54453 -69.50417,9.26723 -69.50417,9.26723 0,0 3.08907,-98.85039 63.326,-135.91928 3e-5,0 13.90086,-6.17815 13.90086,-16.98991 z"
       transform="translate(-84.96231,-101.26125)"
       fill="#6c63ff"
       id="path30"
       style="fill:#069494;fill-opacity:1" />
    <path
       d="m 816.35906,186.5487 c 0,0 33.97982,13.90083 46.33612,27.80167 12.3563,13.90084 64.87056,38.61343 64.87056,38.61343 0,0 -4.63361,20.079 -9.26722,20.079 -4.63361,0 -111.20669,-44.7916 -122.01845,-47.88067 -10.81176,-3.08907 -4.63361,-40.15797 20.07899,-38.61343 z"
       transform="translate(-84.96231,-101.26125)"
       fill="#6c63ff"
       id="path31"
       style="fill:#069494;fill-opacity:1" />
    <path
       d="m 843.38846,157.97476 c 0,0 7.72269,-7.72269 -7.72269,-13.90084 0,0 15.44538,-6.17815 18.53445,-15.44537 3.08907,-9.26722 13.90084,-24.7126 23.16806,0 9.26722,24.7126 26.25713,57.14788 -29.34621,57.14788 0,0 -13.90083,3.08907 -13.90083,-9.26722 a 23.16806,23.16806 0 0 1 9.26722,-18.53445 z"
       transform="translate(-84.96231,-101.26125)"
       fill="#3f3d56"
       id="path32" />
  </g>
</svg>
