<?xml version="1.0" encoding="UTF-8" standalone="no"?>
<!-- Created with Inkscape (http://www.inkscape.org/) -->

<svg
   width="793.70081"
   height="617.09869"
   viewBox="0 0 210 163.27403"
   version="1.1"
   id="svg1"
   xml:space="preserve"
   xmlns="http://www.w3.org/2000/svg"
   xmlns:svg="http://www.w3.org/2000/svg"><defs
     id="defs1" /><g
     id="layer1"><g
       id="g1"
       transform="matrix(0.13821016,0,0,0.13821016,47.889535,66.746043)"
       style="stroke-width:1.91436"><g
         id="g4"
         transform="matrix(2.2998246,0,0,2.2998246,-346.49793,-482.93152)"
         style="stroke-width:0.832394"><polygon
           points="476.60745,33.3299 476.60745,95.10262 428.21881,95.10262 428.21881,17.88672 "
           fill="#2f2e41"
           id="polygon1"
           style="stroke-width:0.832394" /><g
           id="g2"
           style="stroke-width:0.832394"><polygon
             points="485.19781,487.15109 475.21198,487.38674 469.64572,442.52422 484.38226,442.1755 "
             fill="#a0616a"
             id="polygon2"
             style="stroke-width:0.832394" /><path
             d="m 450.93774,507.98449 v 0 c 0,1.68692 1.19714,3.05447 2.67392,3.05447 h 19.82098 c 0,0 1.95056,-7.8407 9.90323,-11.21497 l 0.54886,11.21497 h 10.22495 l -1.23886,-18.03317 c 0,0 2.73523,-9.6478 -2.94525,-14.5795 -5.68054,-4.93167 -1.07953,-4.24515 -1.07953,-4.24515 l -2.23462,-11.16116 -15.45102,1.81693 -0.11362,17.52042 -7.49826,17.39066 -10.99814,5.43289 c -0.97888,0.48355 -1.61258,1.5853 -1.61258,2.80356 l -1.2e-4,3e-5 6e-5,3e-5 z"
             fill="#2f2e41"
             id="path2"
             style="stroke-width:0.832394" /></g><g
           id="g3"
           style="stroke-width:0.832394"><polygon
             points="434.01981,487.15109 424.034,487.38674 418.46774,442.52422 433.20428,442.1755 "
             fill="#a0616a"
             id="polygon3"
             style="stroke-width:0.832394" /><path
             d="m 399.75974,507.98449 v 0 c 0,1.68692 1.19714,3.05447 2.67392,3.05447 h 19.82098 c 0,0 1.95056,-7.8407 9.90323,-11.21497 l 0.54886,11.21497 h 10.22498 l -1.23886,-18.03317 c 0,0 2.73523,-9.6478 -2.94525,-14.5795 -5.68054,-4.93167 -1.07953,-4.24515 -1.07953,-4.24515 l -2.23462,-11.16116 -15.45102,1.81693 -0.11362,17.52042 -7.49826,17.39066 -10.99814,5.43289 c -0.97888,0.48355 -1.61258,1.5853 -1.61258,2.80356 l -1.2e-4,3e-5 3e-5,3e-5 z"
             fill="#2f2e41"
             id="path3"
             style="stroke-width:0.832394" /></g><path
           d="m 479.69608,179.52535 -63.83182,38.09319 -14.41364,58.6841 7.20682,181.19998 h 31.60785 l 7.00009,-174.50793 14.01236,174.50793 h 32.10236 l 8.11957,-195.96588 c 2.23615,-14.24153 0.47134,-28.82428 -5.09747,-42.12126 l -16.70612,-39.89014 v 2e-5 z"
           fill="#2f2e41"
           id="path4"
           style="stroke-width:0.832394" /><path
           d="m 465.28244,63.18671 -26.76819,-2.05909 -7.20682,14.41364 -20.59091,5.14773 -5.14774,63.83183 c 10.18344,26.45763 16.57611,51.74094 10.29544,73.09772 l 78.24545,-4.11818 -13.06387,-35.32477 c 0,0 -0.32022,-13.06387 6.8866,-30.56615 7.20682,-17.50228 -4.11819,-62.80227 -4.11819,-62.80227 l -16.47272,-4.11818 -2.05908,-17.50227 h 3e-5 z"
           fill="#6c63ff"
           id="path5"
           style="fill:#069494;fill-opacity:1;stroke-width:0.832394" /><g
           id="g7"
           style="stroke-width:0.832394"><path
             d="m 285.04523,88.01722 c 2.60648,0.08077 5.01508,-0.43385 6.90954,-1.35578 l 24.78147,2.33778 0.76745,-11.82457 -25.22097,-1.09834 c -1.83374,-1.03748 -4.20587,-1.70024 -6.81235,-1.781 -5.95447,-0.1845 -10.87667,2.73767 -10.99407,6.52688 -0.1174,3.78921 4.61443,7.0105 10.56888,7.19503 h 4e-5 z"
             fill="#a0616a"
             id="path6"
             style="stroke-width:0.832394" /><path
             d="m 431.63758,124.1151 c 0,0 -0.87513,-37.66936 -9.13728,-43.3234 -3.40733,-2.33173 -55.79835,-2.86144 -57.70688,-3.05922 -11.7705,-1.21982 -20.14619,-5.89291 -30.05665,-6.40513 -24.15143,-1.24822 -36.36142,4.61263 -36.36142,4.61263 l -0.4261,12.09401 133.68833,36.08112 v 0 z"
             fill="#6c63ff"
             id="path7"
             style="fill:#069494;fill-opacity:1;stroke-width:0.832394" /></g><circle
           id="b"
           cx="449.61813"
           cy="38.777519"
           r="21.374121"
           fill="#a0616a"
           style="stroke-width:0.832394" /><path
           d="m 443.13531,6.9502 c -4.59747,2.89805 -7.96442,0.82321 -11.24823,2.2848 -6.41595,2.85567 -17.2478,22.91289 -16.27109,31.31003 1.38333,11.89259 5.75455,12.38228 5.62411,20.91467 -0.20944,13.70108 -1.29807,13.64424 1.50778,18.42823 3.12073,5.3209 20.79678,3.87619 24.07825,-3.33932 0.64737,-1.42351 -6.54358,-0.86368 -14.48914,-19.53917 -3.98712,-9.37141 -1.36966,-17.91088 0,-21.62045 0.32068,-0.86851 0.46719,-7.03431 1.15149,-6.35002 6,6 9.36322,1.61404 12.98618,1.11071 7.43539,-1.03298 13.03461,4.9656 15.29056,2.81206 1.67871,-1.60251 -0.46268,-5.83954 0.3515,-6.15137 0.86807,-0.33248 3.74231,4.31568 5.62411,9.31494 1.21353,3.22392 1.82028,4.83586 1.75754,6.67864 -0.19379,5.69077 -1.64487,21.82578 -4.21591,26.56006 -5.55215,10.22368 1.43896,14.08128 5.7977,13.336 3.52148,-0.60214 19.08893,1.76859 19.94095,0.04809 0.759,-1.53272 -0.97482,-17.29877 -2.79672,-31.95602 C 486.03457,33.17495 477.25784,16.98579 463.49603,5.771 c -0.80704,-0.65767 -1.409,-1.10891 -1.7308,-1.28132 -0.76224,-0.40838 -8.62128,-4.48915 -14.4118,-1.23027 -2.13171,1.19972 -1.78458,2.15685 -4.21808,3.69082 l -3e-5,-3e-5 z"
           fill="#2f2e41"
           id="path8"
           style="stroke-width:0.832394" /><g
           id="g9"
           style="stroke-width:0.832394"><polygon
             points="176.13661,503.83715 164.2775,503.83599 158.63605,458.09316 176.13899,458.09438 "
             fill="#ffb6b6"
             id="polygon8"
             style="stroke-width:0.832394" /><path
             d="m 135.50577,503.56811 v 0 c -0.36925,0.62189 -0.56409,2.62906 -0.56409,3.35226 v 0 c 0,2.22293 1.80202,4.02502 4.02502,4.02502 h 36.72632 c 1.51648,0 2.7459,-1.22934 2.7459,-2.74591 v -1.52902 c 0,0 1.8168,-4.59555 -1.92369,-10.2598 0,0 -4.64894,4.43521 -11.59566,-2.51151 l -2.04852,-3.71106 -14.82851,10.84482 -8.21921,1.01172 c -1.7982,0.22131 -3.39246,-0.0344 -4.31743,1.52347 h -1.4e-4 z"
             fill="#2f2e41"
             id="path9"
             style="stroke-width:0.832394" /></g><g
           id="g10"
           style="stroke-width:0.832394"><polygon
             points="226.13661,503.83715 214.2775,503.83599 208.63605,458.09316 226.13899,458.09438 "
             fill="#ffb6b6"
             id="polygon9"
             style="stroke-width:0.832394" /><path
             d="m 185.50577,503.56811 v 0 c -0.36925,0.62189 -0.56409,2.62906 -0.56409,3.35226 v 0 c 0,2.22293 1.80202,4.02502 4.02502,4.02502 h 36.72632 c 1.51648,0 2.7459,-1.22934 2.7459,-2.74591 v -1.52902 c 0,0 1.8168,-4.59555 -1.92369,-10.2598 0,0 -4.64894,4.43521 -11.59566,-2.51151 l -2.04852,-3.71106 -14.82851,10.84482 -8.21921,1.01172 c -1.7982,0.22131 -3.39246,-0.0344 -4.31743,1.52347 h -1.4e-4 z"
             fill="#2f2e41"
             id="path10"
             style="stroke-width:0.832394" /></g><polygon
           points="183.33099,468.03896 189.98848,284.53896 201.98848,471.53896 231.51997,471.53896 244.98848,258.53896 228.48848,215.03898 141.48848,214.03898 132.48848,271.03896 154.48848,468.03896 "
           fill="#2f2e41"
           id="polygon10"
           style="stroke-width:0.832394" /><g
           id="g12"
           style="stroke-width:0.832394"><path
             d="m 597.3208,495.98068 c 2.06592,0.12936 3.2077,-2.43738 1.64465,-3.93332 l -0.15552,-0.61819 c 0.0204,-0.0495 0.0411,-0.099 0.0618,-0.14838 2.08923,-4.98181 9.16992,-4.94742 11.24139,0.0418 1.83856,4.42816 4.17944,8.86389 4.7558,13.54593 0.25836,2.0668 0.14215,4.17236 -0.31647,6.20047 4.30804,-9.41058 6.57513,-19.68661 6.57513,-30.02078 0,-2.59653 -0.14215,-5.19302 -0.43274,-7.78296 -0.23901,-2.11853 -0.56842,-4.22409 -0.99469,-6.31033 -2.30573,-11.27719 -7.29852,-22.01825 -14.50012,-30.98962 -3.46198,-1.89249 -6.34906,-4.85065 -8.09296,-8.39651 -0.62646,-1.2789 -1.11737,-2.65463 -1.34991,-4.05618 0.39398,0.0517 1.48553,-5.94867 1.18842,-6.3168 0.54907,-0.83316 1.5318,-1.24734 2.13147,-2.06033 2.9823,-4.0434 7.09119,-3.3374 9.23621,2.15726 4.58221,2.31265 4.62659,6.14807 1.81494,9.83682 -1.78876,2.34683 -2.03455,5.52234 -3.60406,8.03479 0.1615,0.2067 0.32947,0.40695 0.49091,0.61365 2.96106,3.79788 5.52209,7.88 7.68103,12.16858 -0.61017,-4.7662 0.29065,-10.50821 1.82642,-14.20959 1.74817,-4.21732 5.0249,-7.76917 7.91046,-11.41501 3.466,-4.37924 10.57336,-2.46805 11.18402,3.08331 0.006,0.0537 0.0117,0.10745 0.0173,0.16119 -0.42859,0.24179 -0.84851,0.49866 -1.25867,0.76993 -2.33948,1.54724 -1.53094,5.17386 1.24109,5.60175 l 0.0627,0.01 c -0.15503,1.54367 -0.41986,3.07443 -0.80731,4.57938 3.70178,14.3158 -4.2901,19.52991 -15.70148,19.76413 -0.25189,0.12915 -0.49738,0.25833 -0.74927,0.3811 1.15619,3.25525 2.07983,6.59448 2.7644,9.97891 0.61359,2.99042 1.03992,6.01318 1.27887,9.04889 0.29718,3.83005 0.2713,7.6796 -0.0517,11.50323 l 0.0194,-0.13562 c 0.82025,-4.21115 3.10669,-8.14462 6.42657,-10.87027 4.94562,-4.06265 11.9328,-5.55869 17.26825,-8.82425 2.56836,-1.57196 5.85944,0.45944 5.41119,3.43707 l -0.0218,0.14261 c -0.79443,0.32288 -1.56946,0.69754 -2.31873,1.11734 -0.42859,0.24185 -0.84845,0.49866 -1.25867,0.76993 -2.33948,1.5473 -1.53094,5.17392 1.24109,5.60181 l 0.0628,0.01 c 0.0452,0.006 0.084,0.0129 0.12909,0.0194 -1.36279,3.23581 -3.26166,6.23923 -5.63855,8.82922 -2.31464,12.49713 -12.25604,13.68283 -22.8902,10.04355 h -0.006 c -1.1626,5.06378 -2.86127,10.01126 -5.04437,14.72623 h -18.0202 c -0.0646,-0.20023 -0.12274,-0.40692 -0.18091,-0.60718 1.66638,0.10342 3.3457,0.007 4.98627,-0.29703 -1.33704,-1.64059 -2.67395,-3.2941 -4.01099,-4.93463 -0.0323,-0.0323 -0.0582,-0.0646 -0.084,-0.0969 -0.67816,-0.8396 -1.36279,-1.67282 -2.04102,-2.51245 l -3.7e-4,-0.001 c -0.0425,-2.57755 0.26654,-5.14661 0.87878,-7.63983 l 5.5e-4,-3.4e-4 6e-5,-9e-5 z"
             fill="#f2f2f2"
             id="path11"
             style="stroke-width:0.832394" /><path
             d="m 0,512.47796 c 0,0.66003 0.53003,1.19 1.19006,1.19 h 658.28998 c 0.65997,0 1.19,-0.52997 1.19,-1.19 0,-0.65997 -0.53003,-1.19 -1.19,-1.19 H 1.19006 c -0.66003,0 -1.19006,0.53003 -1.19006,1.19 z"
             fill="#cccccc"
             id="path12"
             style="stroke-width:0.832394" /></g><polygon
           points="168.02391,65.53897 161.98848,77.53897 132.48848,91.08621 142.98848,168.53898 134.98848,219.53898 234.92155,219.53898 225.98848,160.53898 237.98848,89.53897 204.98848,76.53897 198.98848,65.53897 "
           fill="#e6e6e6"
           id="polygon12"
           style="stroke-width:0.832394" /><path
           d="m 302.63635,253.22138 c -1.35047,-2.75524 -1.96668,-5.58707 -1.89691,-8.06518 l -14.52297,-25.43477 12.30503,-6.55655 13.40724,26.50697 c 2.00147,1.46292 3.86228,3.6847 5.21277,6.43994 3.08516,6.29436 2.33906,12.98845 -1.66643,14.95171 -4.00549,1.96326 -9.75355,-1.54773 -12.83871,-7.84209 v -3e-5 z"
           fill="#ffb6b6"
           id="path13"
           style="stroke-width:0.832394" /><path
           d="m 206.90837,86.12585 c 0,0 9.7973,-10.08042 20.78782,-3.06555 10.99052,7.01487 51.08317,78.79864 51.08317,78.79864 l 30.92691,61.71237 -21.82984,10.17021 -26.33701,-59.09482 -55.31011,-59.5213 0.67909,-28.99957 -2e-5,2e-5 z"
           fill="#e6e6e6"
           id="path14"
           style="stroke-width:0.832394" /><circle
           cx="182.19489"
           cy="31.729179"
           r="27.960541"
           fill="#ffb6b6"
           id="circle14"
           style="stroke-width:0.832394" /><path
           d="m 173.42004,54.23213 c 0.12943,2.73928 0.19415,4.10893 -0.2267,4.27447 -1.26678,0.49829 -17.57945,-9.13559 -19.50031,-15.5487 -0.89589,-2.99112 -0.13937,-3.05075 -0.7933,-11.56027 -0.62544,-8.13874 -1.32661,-8.2036 -0.49765,-10.21717 0.92139,-2.238 3.73517,-4.99537 9.36273,-10.51014 2.12782,-2.08517 3.19174,-3.12776 3.86336,-3.66681 2.03552,-1.63376 9.61858,-7.72008 16.57198,-6.93375 2.9146,0.32961 2.41647,1.49329 13.30482,7.39793 0.93784,0.50858 2.19548,1.17994 3.93233,1.95076 4.22417,1.87472 6.84479,2.36074 8.22437,2.88354 8.36092,3.16845 5.90727,20.81824 5.1888,20.91941 -0.26189,0.03688 -0.33296,-2.25184 -1.70499,-2.44106 -1.23499,-0.17032 -2.02139,1.56761 -3.14391,1.63086 -3.06528,0.17273 0.33879,-2.76164 -7.1635,-6.02074 -2.9165,-1.26696 5.19873,4.44557 -2.5266,4.35285 -12.08104,-0.14501 -4.35448,0.6239 -8.94247,3.03394 -3.34595,1.75761 -16.80617,-7.91495 -16.25926,-4.82419 0.38574,2.18 1.96767,2.80764 1.73946,5.24985 -0.22108,2.36604 -1.99922,4.91621 -3.5677,5.00992 -1.44562,0.08636 -2.23788,-1.94234 -2.72009,-1.74821 -0.52454,0.21117 0.0516,2.75692 1.18263,5.37242 1.43588,3.32038 2.29295,3.3464 3.05023,5.9001 0.43558,1.46882 0.49896,2.81088 0.62579,5.495 h -2e-5 z"
           fill="#2f2e41"
           id="path15"
           style="stroke-width:0.832394" /><path
           d="M 393.7945,245.01136 213.63669,199.17443 c -11.5164,-2.93008 -18.50203,-14.68339 -15.57195,-26.19979 l 22.41268,-88.09098 c 2.93008,-11.5164 14.68339,-18.50203 26.19979,-15.57195 l 180.15781,45.83693 c 11.5164,2.93008 18.50203,14.68339 15.57195,26.19979 l -22.41268,88.09097 c -2.93008,11.5164 -14.68339,18.50203 -26.19979,15.57195 v 0 z"
           fill="#ffffff"
           id="path16"
           style="stroke-width:0.832394" /><path
           d="M 393.7945,245.01136 213.63669,199.17443 c -5.7582,-1.46504 -10.38371,-5.13589 -13.68797,-10.00331 -4.80751,-7.08182 -6.06196,-15.99784 -3.95144,-24.29302 l 18.79461,-73.87046 c 2.11051,-8.29518 7.47354,-15.52754 15.081,-19.45067 5.2287,-2.69641 11.04613,-3.7103 16.80433,-2.24526 l 180.15781,45.83693 c 11.53495,2.9348 18.50675,14.66484 15.57195,26.19979 L 419.9943,229.4394 c -2.93008,11.5164 -14.68339,18.50203 -26.19979,15.57195 v 0 z M 246.18408,71.24996 c -10.46448,-2.66244 -7.72944,6.81486 -10.39189,17.27934 l -2e-5,9e-5 c -12.98962,51.05451 13.87706,103.83737 62.80805,123.35791 26.41344,10.53738 48.38357,19.15044 48.38357,19.15044 36.58969,9.30939 73.79823,-12.80567 83.10762,-49.39536 l 10.37732,-40.7871 c 2.66244,-10.46448 -3.66236,-21.10595 -14.12684,-23.76839 L 246.18408,71.24997 Z"
           fill="#3f3d56"
           id="path17"
           style="stroke-width:0.832394" /><path
           d="m 330.47886,140.66837 -6e-5,-2e-5 c -1.25546,-10.32043 -10.63949,-17.66902 -20.95986,-16.4136 l -6e-5,-2e-5 c -10.22249,1.24352 -17.52398,10.46277 -16.44173,20.66702 l -0.29938,0.0364 4.54631,37.37348 34.39032,-4.18341 c 1.08685,0.0588 2.19263,0.0296 3.31059,-0.10642 l 6e-5,2e-5 c 10.3204,-1.25545 17.66902,-10.63951 16.41356,-20.95991 v -4e-5 c -1.25545,-10.32041 -10.63949,-17.669 -20.95985,-16.41356 l 10e-5,9e-5 v 0 z"
           fill="#6c63ff"
           id="path18"
           style="fill:#069494;fill-opacity:1;stroke-width:0.832394" /><path
           d="m 264.55969,493.7224 h -3e-5 c -1.45657,-3.7532 -5.67987,-5.61499 -9.43306,-4.15845 h -2e-5 c -3.71759,1.44272 -5.57742,5.5997 -4.19696,9.32584 l -0.10889,0.0422 5.27463,13.59152 12.50662,-4.85361 c 0.41348,-0.0817 0.82568,-0.19824 1.23224,-0.35605 h 3e-5 c 3.75317,-1.45657 5.61499,-5.6799 4.15842,-9.43307 v -3e-5 c -1.45657,-3.7532 -5.67987,-5.61499 -9.43304,-4.15842 z"
           fill="#e6e6e6"
           id="path19"
           style="stroke-width:0.832394" /><path
           d="m 544.55969,493.7224 v 0 c -1.45654,-3.7532 -5.67987,-5.61499 -9.43304,-4.15845 v 0 c -3.71759,1.44272 -5.57745,5.5997 -4.19696,9.32584 l -0.10889,0.0422 5.27466,13.59152 12.50665,-4.85361 c 0.41351,-0.0817 0.82568,-0.19824 1.23224,-0.35605 v 0 c 3.75317,-1.45657 5.61499,-5.6799 4.15845,-9.43307 v -3e-5 c -1.45654,-3.7532 -5.67987,-5.61499 -9.43304,-4.15842 l 6e-5,3e-5 h -1.2e-4 z"
           fill="#e6e6e6"
           id="path20"
           style="stroke-width:0.832394" /><circle
           cx="315.71167"
           cy="224.38596"
           r="24"
           fill="#6c63ff"
           id="circle20"
           style="fill:#069494;fill-opacity:1;stroke-width:0.832394" /><path
           d="m 206.61116,127.053 c -2.57521,1.66838 -5.31372,2.61681 -7.78256,2.84207 l -23.52834,17.4431 -7.97261,-11.43854 24.72554,-16.46272 c 1.21465,-2.16116 3.19952,-4.27285 5.77473,-5.94123 5.88306,-3.81141 12.61836,-3.86623 15.04379,-0.12248 2.42543,3.74376 -0.3775,9.86837 -6.26054,13.67979 h -2e-5 v 2e-5 z"
           fill="#ffb6b6"
           id="path21"
           style="stroke-width:0.832394" /><path
           d="m 151.50369,86.34849 c 0,0 -18,-2 -21,5 -3,7 -9,76.99999 -9,76.99999 l 10,17 65.57875,-49.63223 -13.28033,-13.28034 -28.10548,13.28034 -4.19292,-49.36777 h -2e-5 z"
           fill="#e6e6e6"
           id="path22"
           style="stroke-width:0.832394" /><g
           id="g24"
           style="stroke-width:0.832394"><path
             d="m 412.21765,108.9675 c 2.13898,2.19999 4.5975,3.73446 6.95416,4.50389 l 19.05283,22.24487 10.31979,-9.37574 -20.43829,-21.55572 c -0.70285,-2.37739 -2.1676,-4.87808 -4.30658,-7.07807 -4.88651,-5.02587 -11.44046,-6.57928 -14.6387,-3.46969 -3.19827,3.10959 -1.82968,9.70462 3.05679,14.73047 v 0 z"
             fill="#a0616a"
             id="path23"
             style="stroke-width:0.832394" /><path
             d="m 475.0062,81.5578 c 0,0 17.99335,2.05887 19.3591,9.55119 1.36575,7.49232 -8.37411,77.07058 -8.37411,77.07058 l -13.53482,14.34604 -52.8786,-62.99034 15.90439,-9.98926 24.44208,19.20599 15.08194,-47.1942 h 3e-5 z"
             fill="#6c63ff"
             id="path24"
             style="fill:#069494;fill-opacity:1;stroke-width:0.832394" /></g><circle
           cx="232.39195"
           cy="147.33817"
           r="15.00444"
           fill="#e6e6e6"
           id="circle24"
           style="stroke-width:0.832394" /></g></g></g></svg>
