<?xml version="1.0" encoding="UTF-8" standalone="no"?>
<svg
   id="Layer_1"
   data-name="Layer 1"
   viewBox="0 0 1242.4404 1280"
   version="1.1"
   sodipodi:docname="Untitled-1-01.svg"
   inkscape:version="1.4 (86a8ad7, 2024-10-11)"
   width="1242.4404"
   height="1280"
   inkscape:export-batch-path="..\OneDrive\Documents\Business\Logos-Files\Iconic Mark"
   inkscape:export-batch-name=""
   xmlns:inkscape="http://www.inkscape.org/namespaces/inkscape"
   xmlns:sodipodi="http://sodipodi.sourceforge.net/DTD/sodipodi-0.dtd"
   xmlns="http://www.w3.org/2000/svg"
   xmlns:svg="http://www.w3.org/2000/svg">
  <sodipodi:namedview
     id="namedview10"
     pagecolor="#b9b9b9"
     bordercolor="#999999"
     borderopacity="1"
     inkscape:showpageshadow="2"
     inkscape:pageopacity="0"
     inkscape:pagecheckerboard="0"
     inkscape:deskcolor="#d1d1d1"
     inkscape:zoom="0.1767767"
     inkscape:cx="1496.2379"
     inkscape:cy="1699.8847"
     inkscape:window-width="1920"
     inkscape:window-height="1051"
     inkscape:window-x="-9"
     inkscape:window-y="-9"
     inkscape:window-maximized="1"
     inkscape:current-layer="g80" />
  <defs
     id="defs1">
    <style
       id="style1">
      .cls-1 {
        fill: #069494;
      }

      .cls-1, .cls-2 {
        stroke: rgba(0, 0, 0, 0);
        stroke-miterlimit: 11.34;
        stroke-width: .42px;
      }

      .cls-2 {
        fill: #d3d3ff;
      }
    </style>
  </defs>
  <g
     id="Icon-Color"
     style="stroke-width:0.181578"
     transform="matrix(5.5072713,0,0,5.5072713,-288.4158,-2829.1403)">
    <g
       id="g93">
      <path
         id="path68"
         class="cls-1"
         d="m 165.17,513.71 c -62.3,0 -112.8,52.03 -112.8,116.21 0,64.18 50.5,116.21 112.8,116.21 62.3,0 112.8,-52.03 112.8,-116.21 0,-64.18 -50.5,-116.21 -112.8,-116.21 z m 0,43.58 c 38.94,0 70.5,32.52 70.5,72.63 0,9.33 -1.75,18.57 -5.15,27.21 -7.17,18.26 -21.22,32.73 -38.94,40.11 -7.63,-5.36 -12.23,-14.23 -12.31,-23.75 0.08,-0.98 0.2,-1.95 0.37,-2.92 11.58,-4.41 20.71,-13.82 24.99,-25.75 1.78,-4.76 2.74,-9.81 2.83,-14.91 0,-0.85 -0.07,-1.68 -0.12,-2.51 -0.03,-0.28 -0.03,-0.57 -0.04,-0.85 -0.08,-1.58 -0.28,-3.15 -0.6,-4.7 -0.23,-1.29 -0.54,-2.55 -0.88,-3.79 -3.75,-11.92 -14.5,-20.02 -26.66,-20.1 -4.2,0.07 -8.34,1.11 -12.1,3.04 4.6,0.32 8.91,1.73 12.64,4.06 8.18,5.09 13.66,14.3 13.66,24.86 0,11.38 -6.37,21.2 -15.62,25.96 -1.46,0.75 -2.98,1.38 -4.57,1.87 -0.48,0.14 -0.96,0.28 -1.45,0.4 -2.16,0.43 -4.36,0.68 -6.56,0.76 -2.21,-0.08 -4.4,-0.33 -6.57,-0.76 -18.01,-3.01 -32.12,-17.58 -35,-36.14 -0.46,2.57 -0.73,5.21 -0.73,7.91 0.09,5.1 1.05,10.15 2.83,14.91 4.29,11.93 13.42,21.34 25,25.75 0.17,0.97 0.3,1.94 0.37,2.92 0,9.45 -4.48,18.3 -11.97,23.73 -17.83,-7.36 -31.98,-21.89 -39.17,-40.24 -3.42,-8.59 -5.2,-17.78 -5.26,-27.07 0,-40.11 31.56,-72.63 70.5,-72.63 v 0 z m 0,58.11 c -7.79,0 -14.1,6.5 -14.1,14.53 0,8.02 6.31,14.53 14.1,14.53 7.79,0 14.1,-6.5 14.1,-14.53 0,-8.02 -6.31,-14.53 -14.1,-14.53 z" />
      <path
         id="path69"
         class="cls-2"
         d="m 165.17,557.29 c -38.94,0 -70.5,32.52 -70.5,72.63 0.06,9.29 1.84,18.47 5.26,27.07 7.19,18.35 21.33,32.89 39.17,40.24 7.5,-5.43 11.97,-14.28 11.97,-23.73 -0.08,-0.98 -0.2,-1.95 -0.37,-2.92 -11.58,-4.41 -20.71,-13.82 -25,-25.75 -1.78,-4.76 -2.74,-9.81 -2.83,-14.91 0,-2.71 0.27,-5.34 0.73,-7.91 2.88,18.56 16.99,33.13 35,36.14 2.17,0.43 4.36,0.68 6.57,0.76 2.2,-0.08 4.4,-0.33 6.56,-0.76 0.49,-0.13 0.97,-0.26 1.45,-0.4 1.59,-0.48 3.11,-1.12 4.57,-1.87 9.25,-4.76 15.62,-14.58 15.62,-25.96 0,-10.56 -5.49,-19.77 -13.66,-24.86 -3.74,-2.32 -8.04,-3.73 -12.64,-4.06 3.76,-1.93 7.9,-2.97 12.1,-3.04 12.16,0.07 22.91,8.17 26.66,20.1 0.34,1.24 0.65,2.51 0.88,3.79 0.32,1.55 0.52,3.12 0.6,4.7 0,0.28 0,0.57 0.04,0.85 0.05,0.84 0.12,1.66 0.12,2.51 -0.09,5.1 -1.05,10.15 -2.83,14.91 -4.28,11.93 -13.41,21.34 -25,25.75 -0.17,0.97 -0.3,1.94 -0.37,2.92 0.08,9.52 4.68,18.39 12.31,23.75 17.72,-7.38 31.77,-21.86 38.94,-40.11 3.4,-8.65 5.14,-17.88 5.15,-27.21 0,-40.11 -31.56,-72.63 -70.5,-72.63 z m 0,58.11 c 7.79,0 14.1,6.5 14.1,14.53 0,8.02 -6.31,14.53 -14.1,14.53 -7.79,0 -14.1,-6.5 -14.1,-14.53 0,-8.02 6.31,-14.53 14.1,-14.53 z" />
    </g>
  </g>
</svg>
