<?xml version="1.0" encoding="UTF-8" standalone="no"?>
<svg
   id="Layer_1"
   data-name="Layer 1"
   viewBox="0 0 1280 308.31644"
   version="1.1"
   sodipodi:docname="Untitled-1-01.svg"
   inkscape:version="1.4 (86a8ad7, 2024-10-11)"
   width="1280"
   height="308.31644"
   inkscape:export-batch-path="..\OneDrive\Documents\Business\Logos-Files\Full Lockup"
   inkscape:export-batch-name=""
   xmlns:inkscape="http://www.inkscape.org/namespaces/inkscape"
   xmlns:sodipodi="http://sodipodi.sourceforge.net/DTD/sodipodi-0.dtd"
   xmlns="http://www.w3.org/2000/svg"
   xmlns:svg="http://www.w3.org/2000/svg">
  <sodipodi:namedview
     id="namedview10"
     pagecolor="#b9b9b9"
     bordercolor="#999999"
     borderopacity="1"
     inkscape:showpageshadow="2"
     inkscape:pageopacity="0"
     inkscape:pagecheckerboard="0"
     inkscape:deskcolor="#d1d1d1"
     inkscape:zoom="0.1767767"
     inkscape:cx="1496.2379"
     inkscape:cy="1699.8847"
     inkscape:window-width="1920"
     inkscape:window-height="1051"
     inkscape:window-x="-9"
     inkscape:window-y="-9"
     inkscape:window-maximized="1"
     inkscape:current-layer="g80" />
  <defs
     id="defs1">
    <style
       id="style1">
      .cls-1 {
        fill: #069494;
      }

      .cls-1, .cls-2 {
        stroke: rgba(0, 0, 0, 0);
        stroke-miterlimit: 11.34;
        stroke-width: .42px;
      }

      .cls-2 {
        fill: #d3d3ff;
      }
    </style>
  </defs>
  <g
     id="Full-Lockup-Light-Background"
     transform="matrix(1.3265486,0,0,1.3265486,-69.47135,-681.46128)"
     style="stroke-width:0.753836">
    <g
       id="g1"
       style="stroke-width:0.753836">
      <path
         id="rect1"
         class="cls-1"
         d="m 165.17,513.71 c -62.3,0 -112.8,52.03 -112.8,116.21 0,64.18 50.5,116.21 112.8,116.21 62.3,0 112.8,-52.03 112.8,-116.21 0,-64.18 -50.5,-116.21 -112.8,-116.21 z m 0,43.58 c 38.94,0 70.5,32.52 70.5,72.63 0,9.33 -1.75,18.57 -5.15,27.21 -7.17,18.26 -21.22,32.73 -38.94,40.11 -7.63,-5.36 -12.23,-14.23 -12.31,-23.75 0.08,-0.98 0.2,-1.95 0.37,-2.92 11.58,-4.41 20.71,-13.82 24.99,-25.75 1.78,-4.76 2.74,-9.81 2.83,-14.91 0,-0.85 -0.07,-1.68 -0.12,-2.51 -0.03,-0.28 -0.03,-0.57 -0.04,-0.85 -0.08,-1.58 -0.28,-3.15 -0.6,-4.7 -0.23,-1.29 -0.54,-2.55 -0.88,-3.79 -3.75,-11.92 -14.5,-20.02 -26.66,-20.1 -4.2,0.07 -8.34,1.11 -12.1,3.04 4.6,0.32 8.91,1.73 12.64,4.06 8.18,5.09 13.66,14.3 13.66,24.86 0,11.38 -6.37,21.2 -15.62,25.96 -1.46,0.75 -2.98,1.38 -4.57,1.87 -0.48,0.14 -0.96,0.28 -1.45,0.4 -2.16,0.43 -4.36,0.68 -6.56,0.76 -2.21,-0.08 -4.4,-0.33 -6.57,-0.76 -18.01,-3.01 -32.12,-17.58 -35,-36.14 -0.46,2.57 -0.73,5.21 -0.73,7.91 0.09,5.1 1.05,10.15 2.83,14.91 4.29,11.93 13.42,21.34 25,25.75 0.17,0.97 0.3,1.94 0.37,2.92 0,9.45 -4.48,18.3 -11.97,23.73 -17.83,-7.36 -31.98,-21.89 -39.17,-40.24 -3.42,-8.59 -5.2,-17.78 -5.26,-27.07 0,-40.11 31.56,-72.63 70.5,-72.63 v 0 z m 0,58.11 c -7.79,0 -14.1,6.5 -14.1,14.53 0,8.02 6.31,14.53 14.1,14.53 7.79,0 14.1,-6.5 14.1,-14.53 0,-8.02 -6.31,-14.53 -14.1,-14.53 z" />
      <path
         id="path3"
         class="cls-2"
         d="m 165.17,557.29 c -38.94,0 -70.5,32.52 -70.5,72.63 0.06,9.29 1.84,18.47 5.26,27.07 7.19,18.35 21.33,32.89 39.17,40.24 7.5,-5.43 11.97,-14.28 11.97,-23.73 -0.08,-0.98 -0.2,-1.95 -0.37,-2.92 -11.58,-4.41 -20.71,-13.82 -25,-25.75 -1.78,-4.76 -2.74,-9.81 -2.83,-14.91 0,-2.71 0.27,-5.34 0.73,-7.91 2.88,18.56 16.99,33.13 35,36.14 2.17,0.43 4.36,0.68 6.57,0.76 2.2,-0.08 4.4,-0.33 6.56,-0.76 0.49,-0.13 0.97,-0.26 1.45,-0.4 1.59,-0.48 3.11,-1.12 4.57,-1.87 9.25,-4.76 15.62,-14.58 15.62,-25.96 0,-10.56 -5.49,-19.77 -13.66,-24.86 -3.74,-2.32 -8.04,-3.73 -12.64,-4.06 3.76,-1.93 7.9,-2.97 12.1,-3.04 12.16,0.07 22.91,8.17 26.66,20.1 0.34,1.24 0.65,2.51 0.88,3.79 0.32,1.55 0.52,3.12 0.6,4.7 0,0.28 0,0.57 0.04,0.85 0.05,0.84 0.12,1.66 0.12,2.51 -0.09,5.1 -1.05,10.15 -2.83,14.91 -4.28,11.93 -13.41,21.34 -25,25.75 -0.17,0.97 -0.3,1.94 -0.37,2.92 0.08,9.52 4.68,18.39 12.31,23.75 17.72,-7.38 31.77,-21.86 38.94,-40.11 3.4,-8.65 5.14,-17.88 5.15,-27.21 0,-40.11 -31.56,-72.63 -70.5,-72.63 z m 0,58.11 c 7.79,0 14.1,6.5 14.1,14.53 0,8.02 -6.31,14.53 -14.1,14.53 -7.79,0 -14.1,-6.5 -14.1,-14.53 0,-8.02 6.31,-14.53 14.1,-14.53 z" />
    </g>
    <g
       id="g10"
       style="stroke-width:0.753836">
      <path
         d="m 417.5,629.26 v 49.37 c -6.19,4.56 -12.78,7.89 -19.79,10 -7.01,2.11 -14.5,3.16 -22.49,3.16 -9.96,0 -18.97,-1.55 -27.05,-4.64 -8.07,-3.09 -14.97,-7.4 -20.67,-12.91 -5.71,-5.51 -10.11,-12.09 -13.21,-19.75 -3.09,-7.65 -4.64,-16 -4.64,-25.06 0,-9.06 1.49,-17.58 4.47,-25.23 2.98,-7.65 7.22,-14.23 12.7,-19.75 5.49,-5.51 12.14,-9.79 19.96,-12.83 7.82,-3.04 16.59,-4.56 26.33,-4.56 4.95,0 9.58,0.39 13.88,1.18 4.3,0.79 8.3,1.87 11.98,3.25 3.68,1.38 7.05,3.05 10.08,5.02 3.04,1.97 5.82,4.14 8.35,6.5 l -6.5,10.3 c -1.01,1.63 -2.34,2.63 -3.97,3 -1.63,0.37 -3.4,-0.04 -5.32,-1.22 -1.86,-1.07 -3.71,-2.14 -5.57,-3.21 -1.86,-1.07 -3.92,-2 -6.2,-2.78 -2.28,-0.78 -4.84,-1.44 -7.68,-1.94 -2.84,-0.51 -6.12,-0.76 -9.83,-0.76 -6.02,0 -11.46,1.01 -16.33,3.04 -4.87,2.03 -9.02,4.92 -12.45,8.69 -3.43,3.77 -6.08,8.3 -7.93,13.59 -1.85,5.29 -2.79,11.19 -2.79,17.72 0,6.98 1,13.21 3,18.69 2,5.49 4.81,10.13 8.44,13.92 3.63,3.8 8,6.7 13.12,8.69 5.12,2 10.83,3 17.13,3 4.5,0 8.52,-0.48 12.07,-1.43 3.54,-0.96 7,-2.25 10.38,-3.88 v -22.11 h -15.36 c -1.46,0 -2.6,-0.41 -3.42,-1.22 -0.82,-0.81 -1.22,-1.81 -1.22,-3 v -12.83 h 40.51 z"
         id="path1"
         style="stroke-width:0.753836" />
      <path
         d="m 444.53,649.77 c 0.34,4.45 1.12,8.28 2.36,11.52 1.24,3.24 2.87,5.91 4.89,8.02 2.03,2.11 4.43,3.69 7.22,4.73 2.78,1.04 5.86,1.56 9.24,1.56 3.38,0 6.29,-0.39 8.73,-1.18 2.44,-0.79 4.58,-1.66 6.41,-2.62 1.83,-0.96 3.43,-1.83 4.81,-2.62 1.38,-0.79 2.71,-1.18 4.01,-1.18 1.74,0 3.04,0.65 3.88,1.94 l 5.99,7.59 c -2.31,2.7 -4.89,4.97 -7.76,6.79 -2.87,1.83 -5.86,3.29 -8.99,4.39 -3.12,1.1 -6.3,1.87 -9.54,2.32 -3.24,0.45 -6.37,0.68 -9.41,0.68 -6.02,0 -11.62,-1 -16.79,-3 -5.18,-2 -9.68,-4.95 -13.5,-8.86 -3.83,-3.91 -6.84,-8.75 -9.03,-14.51 -2.19,-5.77 -3.29,-12.45 -3.29,-20.04 0,-5.91 0.96,-11.46 2.87,-16.67 1.91,-5.2 4.65,-9.73 8.23,-13.59 3.57,-3.85 7.93,-6.9 13.08,-9.16 5.15,-2.25 10.96,-3.38 17.43,-3.38 5.46,0 10.49,0.87 15.11,2.62 4.61,1.74 8.58,4.29 11.9,7.64 3.32,3.35 5.92,7.46 7.81,12.32 1.88,4.87 2.83,10.42 2.83,16.67 0,3.15 -0.34,5.27 -1.01,6.37 -0.68,1.1 -1.97,1.65 -3.88,1.65 h -53.58 z m 39.75,-12.58 c 0,-2.7 -0.38,-5.24 -1.14,-7.64 -0.76,-2.39 -1.9,-4.49 -3.42,-6.29 -1.52,-1.8 -3.45,-3.22 -5.78,-4.26 -2.34,-1.04 -5.05,-1.56 -8.14,-1.56 -6.02,0 -10.76,1.72 -14.22,5.15 -3.46,3.43 -5.67,8.3 -6.62,14.6 z"
         id="path2"
         style="stroke-width:0.753836" />
      <path
         d="m 537.36,691.79 c -7.54,0 -13.32,-2.12 -17.34,-6.37 -4.02,-4.25 -6.03,-10.11 -6.03,-17.59 v -48.35 h -8.86 c -1.13,0 -2.08,-0.37 -2.87,-1.1 -0.79,-0.73 -1.18,-1.83 -1.18,-3.29 v -8.27 l 13.92,-2.28 4.39,-23.63 c 0.28,-1.12 0.81,-2 1.6,-2.62 0.79,-0.62 1.8,-0.93 3.04,-0.93 h 10.8 v 27.26 h 23.12 v 14.85 h -23.12 v 46.92 c 0,2.7 0.66,4.81 1.98,6.33 1.32,1.52 3.14,2.28 5.44,2.28 1.29,0 2.38,-0.15 3.25,-0.47 0.87,-0.31 1.63,-0.63 2.28,-0.97 0.65,-0.34 1.22,-0.66 1.73,-0.97 0.51,-0.31 1.01,-0.46 1.52,-0.46 0.62,0 1.12,0.16 1.52,0.46 0.39,0.31 0.81,0.77 1.27,1.39 l 6.24,10.13 c -3.04,2.53 -6.53,4.45 -10.46,5.74 -3.94,1.29 -8.02,1.94 -12.24,1.94 z"
         id="path4"
         style="stroke-width:0.753836" />
      <path
         d="m 642.2,590.61 c -0.68,1.18 -1.39,2.04 -2.15,2.57 -0.76,0.54 -1.7,0.8 -2.83,0.8 -1.18,0 -2.46,-0.44 -3.84,-1.31 -1.38,-0.87 -3.02,-1.84 -4.94,-2.91 -1.91,-1.07 -4.15,-2.04 -6.71,-2.91 -2.56,-0.87 -5.58,-1.31 -9.07,-1.31 -3.15,0 -5.91,0.38 -8.27,1.14 -2.36,0.76 -4.35,1.82 -5.95,3.17 -1.6,1.35 -2.8,2.97 -3.59,4.85 -0.79,1.89 -1.18,3.95 -1.18,6.2 0,2.87 0.8,5.26 2.4,7.17 1.6,1.91 3.73,3.55 6.37,4.9 2.64,1.35 5.65,2.56 9.03,3.63 3.38,1.07 6.84,2.21 10.38,3.42 3.54,1.21 7,2.62 10.38,4.22 3.38,1.6 6.38,3.63 9.03,6.08 2.64,2.45 4.77,5.44 6.37,8.99 1.6,3.54 2.41,7.85 2.41,12.91 0,5.51 -0.94,10.68 -2.83,15.48 -1.89,4.81 -4.64,9 -8.27,12.57 -3.63,3.57 -8.06,6.39 -13.29,8.44 -5.23,2.05 -11.22,3.08 -17.97,3.08 -3.88,0 -7.71,-0.38 -11.48,-1.14 -3.77,-0.76 -7.38,-1.84 -10.84,-3.25 -3.46,-1.4 -6.71,-3.09 -9.75,-5.06 -3.04,-1.97 -5.74,-4.16 -8.1,-6.58 l 6.67,-10.89 c 0.56,-0.79 1.29,-1.45 2.19,-1.98 0.9,-0.53 1.86,-0.8 2.87,-0.8 1.41,0 2.92,0.58 4.56,1.73 1.63,1.15 3.57,2.43 5.82,3.84 2.25,1.41 4.88,2.69 7.89,3.84 3.01,1.15 6.62,1.73 10.84,1.73 6.47,0 11.48,-1.53 15.02,-4.6 3.54,-3.07 5.32,-7.47 5.32,-13.21 0,-3.21 -0.8,-5.82 -2.4,-7.85 -1.6,-2.03 -3.73,-3.73 -6.37,-5.11 -2.64,-1.38 -5.65,-2.54 -9.03,-3.5 -3.38,-0.96 -6.81,-2 -10.29,-3.12 -3.49,-1.12 -6.92,-2.47 -10.29,-4.05 -3.38,-1.57 -6.39,-3.63 -9.03,-6.16 -2.64,-2.53 -4.77,-5.7 -6.37,-9.49 -1.6,-3.79 -2.4,-8.48 -2.4,-14.05 0,-4.44 0.89,-8.78 2.66,-12.99 1.77,-4.22 4.35,-7.96 7.72,-11.22 3.38,-3.26 7.54,-5.88 12.49,-7.85 4.95,-1.97 10.63,-2.95 17.05,-2.95 7.2,0 13.84,1.13 19.91,3.38 6.08,2.25 11.25,5.4 15.53,9.45 l -5.65,10.72 z"
         id="path5"
         style="stroke-width:0.753836" />
      <path
         d="m 699.25,602.51 c 6.41,0 12.25,1.04 17.51,3.12 5.26,2.08 9.76,5.04 13.5,8.86 3.74,3.83 6.63,8.5 8.65,14.01 2.03,5.51 3.04,11.67 3.04,18.48 0,6.81 -1.01,13.05 -3.04,18.56 -2.02,5.51 -4.91,10.21 -8.65,14.09 -3.74,3.88 -8.24,6.86 -13.5,8.94 -5.26,2.08 -11.1,3.12 -17.51,3.12 -6.41,0 -12.35,-1.04 -17.64,-3.12 -5.29,-2.08 -9.8,-5.06 -13.54,-8.94 -3.74,-3.88 -6.64,-8.58 -8.69,-14.09 -2.05,-5.51 -3.08,-11.7 -3.08,-18.56 0,-6.86 1.03,-12.97 3.08,-18.48 2.05,-5.51 4.95,-10.18 8.69,-14.01 3.74,-3.82 8.25,-6.78 13.54,-8.86 5.29,-2.08 11.17,-3.12 17.64,-3.12 z m 0,73.16 c 7.2,0 12.53,-2.42 15.99,-7.26 3.46,-4.84 5.19,-11.93 5.19,-21.27 0,-9.34 -1.73,-16.45 -5.19,-21.35 -3.46,-4.89 -8.79,-7.34 -15.99,-7.34 -7.2,0 -12.73,2.46 -16.24,7.38 -3.52,4.92 -5.28,12.02 -5.28,21.31 0,9.29 1.76,16.36 5.28,21.22 3.51,4.87 8.93,7.3 16.24,7.3 z"
         id="path6"
         style="stroke-width:0.753836" />
      <path
         d="m 773.69,565.04 v 125.4 h -20.84 v -125.4 z"
         id="path7"
         style="stroke-width:0.753836" />
      <path
         d="m 785.87,615.93 c 9.96,-9.11 21.94,-13.67 35.95,-13.67 5.06,0 9.59,0.83 13.59,2.49 3.99,1.66 7.37,3.97 10.13,6.92 2.76,2.95 4.85,6.48 6.29,10.59 1.43,4.11 2.15,8.61 2.15,13.5 v 54.68 h -9.45 c -1.97,0 -3.49,-0.3 -4.56,-0.89 -1.07,-0.59 -1.91,-1.79 -2.53,-3.59 l -1.86,-6.24 c -2.19,1.97 -4.33,3.7 -6.41,5.19 -2.08,1.49 -4.25,2.74 -6.5,3.75 -2.25,1.01 -4.66,1.79 -7.21,2.32 -2.56,0.53 -5.39,0.8 -8.48,0.8 -3.66,0 -7.03,-0.49 -10.13,-1.48 -3.09,-0.98 -5.77,-2.46 -8.02,-4.43 -2.25,-1.97 -3.99,-4.42 -5.23,-7.34 -1.24,-2.92 -1.86,-6.33 -1.86,-10.21 0,-2.19 0.37,-4.37 1.1,-6.54 0.73,-2.17 1.93,-4.23 3.59,-6.2 1.66,-1.97 3.81,-3.82 6.46,-5.57 2.64,-1.74 5.89,-3.26 9.75,-4.56 3.85,-1.29 8.34,-2.35 13.46,-3.16 5.12,-0.81 10.97,-1.31 17.55,-1.48 v -5.06 c 0,-5.79 -1.24,-10.08 -3.71,-12.87 -2.48,-2.78 -6.05,-4.18 -10.72,-4.18 -3.38,0 -6.18,0.4 -8.4,1.18 -2.22,0.79 -4.18,1.68 -5.87,2.66 -1.69,0.98 -3.22,1.87 -4.6,2.66 -1.38,0.79 -2.91,1.18 -4.6,1.18 -1.46,0 -2.7,-0.38 -3.71,-1.14 -1.01,-0.76 -1.83,-1.65 -2.45,-2.66 l -3.71,-6.67 z m 47.76,37.55 c -6.02,0.28 -11.08,0.8 -15.19,1.56 -4.11,0.76 -7.4,1.73 -9.87,2.91 -2.48,1.18 -4.25,2.56 -5.32,4.13 -1.07,1.58 -1.6,3.29 -1.6,5.15 0,3.66 1.08,6.27 3.25,7.85 2.17,1.58 4.99,2.36 8.48,2.36 4.27,0 7.98,-0.77 11.1,-2.32 3.12,-1.55 6.17,-3.89 9.16,-7.05 v -14.6 z"
         id="path8"
         style="stroke-width:0.753836" />
      <path
         d="m 928.94,622.17 c -0.62,0.79 -1.22,1.41 -1.82,1.86 -0.59,0.45 -1.45,0.68 -2.57,0.68 -1.12,0 -2.11,-0.32 -3.12,-0.97 -1.01,-0.65 -2.22,-1.38 -3.63,-2.19 -1.41,-0.81 -3.08,-1.55 -5.02,-2.19 -1.94,-0.65 -4.35,-0.97 -7.22,-0.97 -3.66,0 -6.86,0.66 -9.62,1.98 -2.76,1.32 -5.05,3.22 -6.88,5.7 -1.83,2.48 -3.19,5.47 -4.09,8.99 -0.9,3.52 -1.35,7.5 -1.35,11.94 0,4.44 0.49,8.72 1.48,12.32 0.98,3.6 2.4,6.62 4.26,9.07 1.86,2.45 4.1,4.3 6.75,5.57 2.64,1.26 5.62,1.9 8.94,1.9 3.32,0 6.01,-0.41 8.06,-1.22 2.05,-0.81 3.78,-1.72 5.19,-2.7 1.41,-0.98 2.63,-1.88 3.67,-2.7 1.04,-0.81 2.21,-1.22 3.5,-1.22 1.69,0 2.95,0.65 3.8,1.94 l 5.99,7.59 c -2.31,2.7 -4.81,4.97 -7.51,6.79 -2.7,1.83 -5.5,3.29 -8.4,4.39 -2.9,1.1 -5.88,1.87 -8.95,2.32 -3.07,0.45 -6.12,0.68 -9.16,0.68 -5.35,0 -10.38,-1 -15.11,-3 -4.73,-2 -8.86,-4.91 -12.4,-8.73 -3.54,-3.82 -6.34,-8.51 -8.4,-14.05 -2.05,-5.54 -3.08,-11.86 -3.08,-18.94 0,-6.36 0.91,-12.25 2.74,-17.68 1.83,-5.43 4.52,-10.13 8.06,-14.09 3.54,-3.96 7.93,-7.07 13.16,-9.33 5.23,-2.25 11.25,-3.38 18.06,-3.38 6.81,0 12.14,1.04 17,3.12 4.87,2.08 9.24,5.06 13.12,8.94 l -5.48,7.6 z"
         id="path9"
         style="stroke-width:0.753836" />
      <path
         d="m 958.8,649.77 c 0.34,4.45 1.12,8.28 2.36,11.52 1.24,3.24 2.87,5.91 4.9,8.02 2.03,2.11 4.43,3.69 7.21,4.73 2.78,1.04 5.87,1.56 9.24,1.56 3.37,0 6.29,-0.39 8.73,-1.18 2.45,-0.79 4.58,-1.66 6.41,-2.62 1.83,-0.96 3.43,-1.83 4.81,-2.62 1.38,-0.79 2.71,-1.18 4.01,-1.18 1.74,0 3.04,0.65 3.88,1.94 l 5.99,7.59 c -2.31,2.7 -4.89,4.97 -7.76,6.79 -2.87,1.83 -5.86,3.29 -8.99,4.39 -3.13,1.1 -6.3,1.87 -9.54,2.32 -3.24,0.45 -6.37,0.68 -9.41,0.68 -6.02,0 -11.62,-1 -16.79,-3 -5.18,-2 -9.68,-4.95 -13.5,-8.86 -3.83,-3.91 -6.83,-8.75 -9.03,-14.51 -2.19,-5.77 -3.29,-12.45 -3.29,-20.04 0,-5.91 0.96,-11.46 2.87,-16.67 1.91,-5.2 4.65,-9.73 8.23,-13.59 3.57,-3.85 7.93,-6.9 13.08,-9.16 5.15,-2.25 10.96,-3.38 17.42,-3.38 5.46,0 10.49,0.87 15.11,2.62 4.61,1.74 8.58,4.29 11.9,7.64 3.32,3.35 5.92,7.46 7.81,12.32 1.88,4.87 2.83,10.42 2.83,16.67 0,3.15 -0.34,5.27 -1.01,6.37 -0.68,1.1 -1.97,1.65 -3.88,1.65 h -53.58 z m 39.74,-12.58 c 0,-2.7 -0.38,-5.24 -1.14,-7.64 -0.76,-2.39 -1.9,-4.49 -3.42,-6.29 -1.52,-1.8 -3.45,-3.22 -5.78,-4.26 -2.33,-1.04 -5.05,-1.56 -8.14,-1.56 -6.02,0 -10.76,1.72 -14.22,5.15 -3.46,3.43 -5.67,8.3 -6.62,14.6 z"
         id="path10"
         style="stroke-width:0.753836" />
    </g>
  </g>
</svg>
