<?xml version="1.0" encoding="UTF-8" standalone="no"?>
<!-- Created with Inkscape (http://www.inkscape.org/) -->

<svg
   width="666.74048"
   height="729.25403"
   viewBox="0 0 176.40841 192.94846"
   version="1.1"
   id="svg1"
   xml:space="preserve"
   xmlns="http://www.w3.org/2000/svg"
   xmlns:svg="http://www.w3.org/2000/svg"><defs
     id="defs1" /><g
     id="layer1"><g
       id="g4"
       transform="matrix(0.26458333,0,0,0.26458333,-5.2822952e-5,-4.5591408e-6)"><g
         id="g5"><path
           d="m 281.82442,290.10639 c 8.34434,-5.7074 19.08371,6.871 13.24169,14.70226 -5.90536,7.91619 -18.8159,5.67215 -23.2615,-2.41079 -5.67221,-10.31318 -0.0237,-22.58111 9.11759,-28.56828 10.38416,-6.80121 23.11071,-7.18388 35.10093,-6.54654 12.1106,0.64374 23.92867,1.49836 35.99369,-0.23774 a 120.73877,120.73877 0 0 0 29.69288,-8.32752 126.144,126.144 0 0 0 49.8754,-37.784 c 6.154,-7.80767 11.90524,-16.583 15.428,-25.92979 2.71341,-7.19943 3.9989,-16.66759 0.15412,-23.71471 a 12.07258,12.07258 0 0 0 -18.35325,-3.68663 c -6.40752,5.24951 -8.138,14.99707 -3.23891,21.78944 5.257,7.28855 15.177,9.78691 23.71776,8.45986 11.86991,-1.84433 21.482,-10.22422 30.56922,-17.43882 l 67.2996,-53.43089 c 11.0974,-8.81052 22.0813,-17.79181 33.32164,-26.41918 9.1408,-7.01591 20.295,-13.81866 32.20023,-10.07127 4.799,1.51059 9.63563,5.08793 10.83522,10.22752 a 13.16117,13.16117 0 0 1 -4.7193,12.74974 8.09512,8.09512 0 0 1 -11.84143,-1.48468 c -2.50885,-3.49919 -2.71523,-8.4881 -1.27026,-12.442 3.86174,-10.56686 18.03216,-11.6724 27.48815,-10.813 A 77.22567,77.22567 0 0 1 664.76,99.12489 c 19.98427,11.60732 34.76356,30.48943 43.43235,51.71619 9.60506,23.51938 12.56417,49.545 12.17205,74.79323 -0.08,5.14952 -0.43642,10.84562 -3.335,15.28575 -2.83881,4.34857 -7.79157,5.66476 -12.234,2.7567 -1.44679,-0.94709 -3.3066,-2.79208 -2.92943,-4.73814 0.47352,-2.44313 5.34266,-2.46191 7.29318,-2.36846 5.33751,0.25575 10.38375,2.94639 14.207,6.57385 9.0862,8.62086 9.79272,21.81147 8.608,33.54021 -1.30056,12.87567 -5.01169,25.68168 -3.53791,38.71616 2.41448,21.35441 19.93636,33.22044 37.146,43.03732 8.8138,5.02765 17.82,9.83406 25.74561,16.23019 a 106.03985,106.03985 0 0 1 20.98748,22.84195 115.37637,115.37637 0 0 1 19.7023,57.1908 105.53268,105.53268 0 0 1 -2.39888,30.5053 c -2.26385,9.779 -5.83027,22.1063 -15.22608,27.35916 a 12.60725,12.60725 0 0 1 -14.367,-1.28945 c -3.80691,-3.05515 -5.66724,-8.47827 -1.73467,-12.29542 3.25844,-3.16281 8.47294,-2.49621 12.40448,-1.21049 4.73362,1.548 8.41716,4.437 11.94539,7.84961 6.72557,6.50519 14.599,14.49134 24.83116,12.41372 1.89062,-0.38389 1.09042,-3.27619 -0.79752,-2.89284 -12.35239,2.50814 -19.79963,-11.84817 -28.909,-17.37541 -6.595,-4.00161 -17.85952,-6.97683 -23.01329,0.82711 -5.56179,8.42178 3.3807,17.50844 11.69093,18.593 10.80476,1.41014 18.29518,-9.15447 21.92294,-17.8746 8.41365,-20.22408 8.67488,-43.93815 3.52854,-64.9969 a 115.92853,115.92853 0 0 0 -32.07,-56.16929 C 791.84851,370.54177 782.7047,364.71388 773.16531,359.28898 763.53575,353.8128 753.5,348.55936 745.2609,341.04332 a 41.83967,41.83967 0 0 1 -14.1556,-32.26254 c 0.0883,-14.01189 4.593,-27.60908 4.31223,-41.648 -0.2328,-11.6399 -4.18837,-23.006 -14.3143,-29.55917 a 23.14517,23.14517 0 0 0 -14.19069,-3.96115 c -2.0484,0.16831 -4.92556,0.51332 -6.61288,1.79567 -1.35878,1.03267 -1.61612,3.45008 -1.34211,5.01288 0.65083,3.71194 4.16155,6.2899 7.57172,7.323 a 10.842,10.842 0 0 0 11.7083,-3.45511 c 3.27936,-3.787 4.41788,-8.83757 4.882,-13.7006 0.62878,-6.58858 0.28111,-13.35648 -0.009,-19.95592 -1.18026,-26.82 -6.48,-54.28185 -20.41812,-77.57483 -11.84784,-19.79977 -30.274,-36.4015 -52.36766,-43.74632 -10.41108,-3.461 -22.76106,-5.53518 -33.50356,-2.38746 -9.2426,2.70823 -16.32493,10.31509 -14.79882,20.38988 1.29186,8.52836 10.12862,14.42716 17.91578,9.0443 A 15.52309,15.52309 0 0 0 622.425,92.96189 c -7.528,-7.88347 -19.80311,-7.82673 -29.19644,-3.8203 -5.65669,2.41269 -10.66482,6.02758 -15.49509,9.7829 -6.15714,4.78689 -12.22764,9.68846 -18.33568,14.53779 l -73.58089,58.41778 c -5.80755,4.61076 -11.52162,9.38992 -17.523,13.74823 -5.60021,4.067 -11.77867,7.83407 -18.67267,9.13986 -9.708,1.83879 -25.07571,-2.9835 -23.89836,-15.29672 0.45721,-4.78174 3.62453,-10.06349 8.46585,-11.43467 4.74568,-1.34409 9.22607,1.70875 10.99028,6.03057 3.88931,9.52773 -0.67813,20.42644 -5.221,28.79057 -11.2483,20.70977 -28.99144,37.57553 -49.78092,48.54993 a 121.03528,121.03528 0 0 1 -33.10862,11.74945 c -12.97267,2.54876 -25.702,2.05 -38.8182,1.25443 -12.71441,-0.77121 -26.06564,-0.69235 -37.398,5.9333 -9.29227,5.4329 -15.49112,15.28529 -14.0016,26.26418 1.29348,9.53389 8.93982,16.8209 18.80155,16.01575 8.2775,-0.6758 16.59384,-7.74444 13.657,-16.72252 -2.43191,-7.43447 -11.819,-13.29727 -18.99876,-8.38644 -1.584,1.0834 -0.085,3.68423 1.51416,2.59041 z"
           transform="translate(-266.62966,-85.37299)"
           fill="#3f3d56"
           id="path1" /><path
           d="m 917.58774,506.70207 h -72.68531 a 4.28809,4.28809 0 0 0 -4.28325,4.28326 v 45.2535 a 4.28813,4.28813 0 0 0 4.28325,4.28326 h 72.68525 a 4.28811,4.28811 0 0 0 4.28331,-4.28326 v -45.2535 a 4.28805,4.28805 0 0 0 -4.28325,-4.28326 z"
           transform="translate(-266.62966,-85.37299)"
           fill="#f2f2f2"
           style="isolation:isolate"
           id="path2" /><path
           d="m 917.58774,506.70207 h -72.68531 a 4.28809,4.28809 0 0 0 -4.28325,4.28326 v 45.2535 a 4.28813,4.28813 0 0 0 4.28325,4.28326 h 72.68525 a 4.28811,4.28811 0 0 0 4.28331,-4.28326 v -45.2535 a 4.28805,4.28805 0 0 0 -4.28325,-4.28326 z m 1.40563,32.50616 a 17.608,17.608 0 0 1 -17.31149,17.53912 c -7.37524,0.096 4.08065,0.13344 -4.81443,0.13344 -20.34014,0 -41.54928,-0.19437 -49.46265,-0.32039 a 3.99033,3.99033 0 0 1 -3.908,-3.974 v -41.59772 a 1.41039,1.41039 0 0 1 1.40535,-1.40882 h 72.68265 a 1.41023,1.41023 0 0 1 1.40858,1.40505 z"
           transform="translate(-266.62966,-85.37299)"
           fill="#e6e6e6"
           id="path3" /><path
           d="m 908.64029,480.64368 h -55.37856 a 2.38009,2.38009 0 0 0 -2.23738,1.57772 l -8.55284,23.99548 a 2.37533,2.37533 0 0 0 2.234,3.17278 l 74.27173,0.13182 h 0.003 a 2.3753,2.3753 0 0 0 2.18316,-3.31092 l -0.1295,0.0554 0.1295,-0.0554 -10.3403,-24.12729 a 2.3724,2.3724 0 0 0 -2.18312,-1.43959 z"
           transform="translate(-266.62966,-85.37299)"
           fill="#e6e6e6"
           id="path4" /><path
           d="m 921.356,506.73164 a 2.3816,2.3816 0 0 1 -0.19231,0.9359 L 910.82407,526.24 a 2.38187,2.38187 0 0 1 -2.18374,1.438 h -55.37775 a 2.38175,2.38175 0 0 1 -2.23929,-1.57691 l -8.55122,-18.44 a 2.37377,2.37377 0 0 1 1.44017,-3.03416 2.33692,2.33692 0 0 1 0.79272,-0.1389 l 9.07258,-0.0171 3.703,-0.006 48.72608,-0.0855 3.7051,-0.006 9.06617,-0.0171 h 0.002 a 2.37644,2.37644 0 0 1 2.376,2.37608 z"
           transform="translate(-266.62966,-85.37299)"
           fill="#e6e6e6"
           id="path5" /><path
           d="m 850.35149,540.64743 c 1.09814,0 16.17808,0.92161 16.17808,2.01975 0,1.09814 -15.07994,1.957 -16.17808,1.957 a 1.98836,1.98836 0 0 1 0,-3.97672 z"
           transform="translate(-266.62966,-85.37299)"
           fill="#e6e6e6"
           id="path6" /><path
           d="m 905.19164,466.04609 h -46.69406 a 4.72551,4.72551 0 0 0 -4.72,4.72 v 56.91193 h 54.86279 a 2.34556,2.34556 0 0 0 1.27136,-0.36967 v -56.54222 a 4.72552,4.72552 0 0 0 -4.72009,-4.72004 z"
           transform="translate(-266.62966,-85.37299)"
           fill="#f2f2f2"
           id="path7" /><path
           d="m 887.36915,469.873 h -25.58953 a 4.30331,4.30331 0 0 0 -4.29911,4.297 v 53.5081 h 48.72608 V 488.71043 A 18.85921,18.85921 0 0 0 887.36915,469.873 Z"
           transform="translate(-266.62966,-85.37299)"
           fill="#ffffff"
           id="path8" /><path
           d="m 897.90538,522.926 h -32.12367 a 1.047,1.047 0 1 0 0,2.094 h 32.12367 a 1.047,1.047 0 1 0 0,-2.094 z"
           transform="translate(-266.62966,-85.37299)"
           fill="#e4e4e4"
           id="path9" /><path
           d="m 897.90538,518.785 h -32.12367 a 1.04807,1.04807 0 0 0 0,2.09614 h 32.12367 a 1.04807,1.04807 0 1 0 0,-2.09614 z"
           transform="translate(-266.62966,-85.37299)"
           fill="#e4e4e4"
           id="path10" /><path
           d="m 879.70681,514.64612 h -13.9251 a 1.047,1.047 0 1 0 0,2.094 h 13.9251 a 1.047,1.047 0 1 0 0,-2.094 z"
           transform="translate(-266.62966,-85.37299)"
           fill="#e4e4e4"
           id="path11" /><path
           d="m 897.90538,505.97525 h -32.12367 a 1.04807,1.04807 0 0 0 0,2.09613 h 32.12367 a 1.04807,1.04807 0 1 0 0,-2.09613 z"
           transform="translate(-266.62966,-85.37299)"
           fill="#e4e4e4"
           id="path12" /><path
           d="m 897.90538,501.83639 h -32.12367 a 1.047,1.047 0 1 0 0,2.094 h 32.12367 a 1.047,1.047 0 1 0 0,-2.094 z"
           transform="translate(-266.62966,-85.37299)"
           fill="#e4e4e4"
           id="path13" /><path
           d="m 879.70681,497.6954 h -13.9251 a 1.04807,1.04807 0 0 0 0,2.09614 h 13.9251 a 1.04807,1.04807 0 1 0 0,-2.09614 z"
           transform="translate(-266.62966,-85.37299)"
           fill="#e4e4e4"
           id="path14" /><path
           d="m 897.90538,489.02453 h -32.12367 a 1.04807,1.04807 0 0 0 0,2.09613 h 32.12367 a 1.04807,1.04807 0 1 0 0,-2.09613 z"
           transform="translate(-266.62966,-85.37299)"
           fill="#e4e4e4"
           id="path15" /><path
           d="m 897.90538,484.88568 h -32.12367 a 1.04807,1.04807 0 0 0 0,2.09613 h 32.12367 a 1.04807,1.04807 0 1 0 0,-2.09613 z"
           transform="translate(-266.62966,-85.37299)"
           fill="#e4e4e4"
           id="path16" /><path
           d="m 879.70681,480.74468 h -13.9251 a 1.04807,1.04807 0 0 0 0,2.09614 h 13.9251 a 1.04807,1.04807 0 1 0 0,-2.09614 z"
           transform="translate(-266.62966,-85.37299)"
           fill="#e4e4e4"
           id="path17" /><circle
           cx="267.1239"
           cy="168.12981"
           r="30.997499"
           fill="#ffb6b6"
           id="circle17" /><path
           d="m 569.13749,235.7543 c -3.26063,-5.0444 -9.3794,-8.40634 -15.31111,-7.46163 a 20.90869,20.90869 0 0 0 -35.0334,-12.19548 6.50171,6.50171 0 0 0 -6.35821,-0.63632 13.40617,13.40617 0 0 0 -5.1656,4.14634 30.08788,30.08788 0 0 0 -4.21015,30.60908 c -0.72494,-2.6354 1.91618,-5.11472 4.58474,-5.7061 2.66833,-0.59139 5.46747,-0.0319 8.17354,-0.417 3.46828,-0.4935 6.586,-2.5055 10.05975,-2.9583 2.91943,-0.38054 5.85533,0.368 8.70226,1.11828 2.84694,0.75021 5.77529,1.51529 8.69884,1.16814 2.92377,-0.34715 6.68981,10.73278 6.63927,18.53676 -0.01,1.47892 0.295,3.37772 1.74031,3.69148 1.77988,0.38648 2.81126,-2.07008 4.50538,-2.73945 a 3.13418,3.13418 0 0 1 3.84425,2.04424 5.10984,5.10984 0 0 1 -0.97559,4.57582 15.09938,15.09938 0 0 1 -3.66083,3.17567 l 0.69772,0.5803 c 1.1606,1.53324 3.568,1.59967 5.24085,0.65107 a 11.31116,11.31116 0 0 0 3.76283,-4.28447 c 3.09483,-5.14753 5.80959,-10.63216 6.9018,-16.53837 1.09221,-5.90621 0.42376,-12.31566 -2.83665,-17.36006 z"
           transform="translate(-266.62966,-85.37299)"
           fill="#2f2e41"
           id="path18" /><polygon
           points="303.489,646.377 303.485,710.95 286.745,710.948 278.781,646.376 "
           fill="#ffb6b6"
           id="polygon18" /><path
           d="m 570.70466,813.78648 -51.48025,-0.002 v -0.651 A 20.03865,20.03865 0 0 1 539.262,793.09626 h 0.001 l 9.40352,-7.134 17.5449,7.13509 4.49389,1.5e-4 z"
           transform="translate(-266.62966,-85.37299)"
           fill="#2f2e41"
           id="path19" /><polygon
           points="293.63,630.733 333.673,681.391 320.54,691.771 274.246,646.056 "
           fill="#ffb6b6"
           id="polygon19" /><path
           d="m 611.5962,780.09759 -40.38567,31.92512 -0.40376,-0.51072 a 20.03864,20.03864 0 0 1 3.29221,-28.14525 l 10e-4,-7.7e-4 2.95242,-11.42819 18.18836,-5.28364 3.52539,-2.78687 z"
           transform="translate(-266.62966,-85.37299)"
           fill="#2f2e41"
           id="path20" /><polygon
           points="318.827,653.576 272.08,500.926 328.324,499.521 330.227,413.447 320.26,394.179 216.918,408.274 215.896,427.117 220.867,433.122 220.297,451.969 225.12,464.305 228.512,503.551 276.018,667.307 "
           fill="#2f2e41"
           id="polygon20" /><polygon
           points="307.409,682.241 278.064,684.384 265.392,480.109 322.915,486.545 328.324,499.521 "
           fill="#2f2e41"
           id="polygon21" /><polygon
           points="326.097,399.147 294.155,217.278 284.519,203.94 253.405,205.187 252.808,215.457 232.139,410.681 252.437,410.226 277.634,416.109 "
           fill="#6c63ff"
           id="polygon22"
           style="fill:#069494;fill-opacity:1" /><path
           d="m 506.75037,499.66408 h -47.71783 l 12.4494,-87.87335 5.04777,-35.61819 c 0,0 -3.57314,-25.45641 -5.303,-38.75653 a 7.52905,7.52905 0 0 1 0.709,-4.14033 13.65555,13.65555 0 0 1 2.19306,-3.30849 c 5.804,-6.6926 18.85837,-12.49664 27.04448,-15.67277 4.216,-1.62586 7.14632,-2.56174 7.14632,-2.56174 L 519.436,300.83362 c 15.95638,19.93601 -12.68563,198.83046 -12.68563,198.83046 z"
           transform="translate(-266.62966,-85.37299)"
           fill="#3f3d56"
           id="path22" /><path
           d="m 554.74085,295.39344 15.138,8.67511 c 0,0 44.832,7.3637 49.19173,24.20114 l -16.50262,49.81473 v 104.693 l -40.00638,16.04268 c 0,0 -34.50915,-169.13833 -7.82073,-203.42666 z"
           transform="translate(-266.62966,-85.37299)"
           fill="#3f3d56"
           id="path23" /><polyline
           points="272.788 475.879 265.392 561.548 277.985 661.252"
           opacity="0.4"
           id="polyline23" /><path
           d="m 360.84924,401.65842 a 10.38673,10.38673 0 0 1 15.4297,3.94836 l 36.67719,-4.14793 -8.69313,17.09781 -33.49654,1.31772 a 10.443,10.443 0 0 1 -9.91715,-18.21589 z"
           transform="translate(-266.62966,-85.37299)"
           fill="#ffb6b6"
           id="path24" /><polygon
           points="248.158,241.42 258.654,247.69 199.871,330.501 128.122,336.597 125.265,316.112 178.129,300.252 204.259,249.604 "
           fill="#3f3d56"
           id="polygon24" /><path
           d="m 728.72485,394.65842 a 10.38673,10.38673 0 0 0 -15.4297,3.94836 l -36.67715,-4.14793 8.69318,17.09781 33.49654,1.31772 a 10.443,10.443 0 0 0 9.91714,-18.21589 z"
           transform="translate(-266.62966,-85.37299)"
           fill="#ffb6b6"
           id="path25" /><polygon
           points="308.156,234.42 297.661,240.69 356.444,323.501 428.193,329.597 431.049,309.112 378.186,293.252 352.056,242.604 "
           fill="#3f3d56"
           id="polygon25" /><path
           d="m 431.871,300.30715 v -1.09442 h -18.34727 v -25.53125 h -1.09163 v 25.53125 H 391.4049 V 279.496 q -0.55143,0.43355 -1.08883,0.89238 v 18.82431 H 376.428 c -0.15436,0.362 -0.30308,0.7268 -0.44339,1.09442 h 14.3315 v 21.45376 h -17.79446 c 0.0168,0.36762 0.0421,0.72962 0.073,1.09444 h 17.72145 v 17.1153 h -13.27638 c 0.16277,0.36761 0.33394,0.72961 0.51355,1.08882 h 12.7628 v 14.38762 h 1.08883 v -14.38758 h 21.0272 v 14.38762 h 1.09163 V 341.05947 H 431.871 v -1.08882 h -18.34727 a 17.11187,17.11187 0 0 1 17.11528,-17.1153 h 1.232 v -1.09444 h -18.34728 v -21.45376 z m -19.43889,39.6635 H 391.4049 v -17.1153 h 21.0272 z m 0,-18.20974 H 391.4049 v -0.42935 a 21.02578,21.02578 0 0 1 21.0272,-21.02441 z"
           transform="translate(-266.62966,-85.37299)"
           fill="#e6e6e6"
           id="path26" /><path
           d="m 591.27643,148.82872 a 0.585,0.585 0 0 1 -0.7633,-0.31646 l -1.51923,-3.67118 a 0.58428133,0.58428133 0 0 1 1.07976,-0.44683 l 1.51923,3.67118 a 0.585,0.585 0 0 1 -0.31646,0.76329 z"
           transform="translate(-266.62966,-85.37299)"
           fill="#3f3d56"
           id="path27" /><path
           d="m 621.92031,121.63212 v 0 L 617.38554,110.674 a 6.86385,6.86385 0 0 0 -8.96684,-3.71764 v 0 l -23.21621,9.60751 a 6.86386,6.86386 0 0 0 -3.71765,8.96685 v 0 l 24.87808,60.117 a 6.86385,6.86385 0 0 0 8.96684,3.71765 v 0 l 23.21624,-9.60752 a 6.86384,6.86384 0 0 0 3.71764,-8.96682 v 0 L 625.14825,129.4323 v 0 a 0.4329,0.4329 0 0 0 0.23447,-0.56554 l -2.89685,-7.00015 a 0.43291,0.43291 0 0 0 -0.56556,-0.23449 z"
           transform="translate(-266.62966,-85.37299)"
           fill="#3f3d56"
           id="path28" /><path
           d="m 616.05311,111.27488 24.84233,60.0306 a 5.12266,5.12266 0 0 1 -2.72423,6.67288 0.2783,0.2783 0 0 1 -0.0497,0.0246 l -23.32914,9.65425 a 5.12861,5.12861 0 0 1 -6.69886,-2.77735 l -24.84233,-60.0306 a 5.12547,5.12547 0 0 1 2.77875,-6.69545 l 2.82922,-1.17081 a 2.43615,2.43615 0 0 0 3.36979,2.23864 l 13.30075,-5.50422 a 2.37045,2.37045 0 0 0 0.77482,-0.52027 2.42943,2.42943 0 0 0 0.0208,-3.44213 l 3.03375,-1.25545 a 5.12469,5.12469 0 0 1 6.69404,2.77534 z"
           transform="translate(-266.62966,-85.37299)"
           fill="#6c63ff"
           id="path29"
           style="fill:#069494;fill-opacity:1" /><path
           d="m 588.68479,142.56613 a 0.585,0.585 0 0 1 -0.76329,-0.31647 l -1.51924,-3.67117 a 0.58428133,0.58428133 0 1 1 1.07976,-0.44683 l 1.51924,3.67117 a 0.585,0.585 0 0 1 -0.31647,0.7633 z"
           transform="translate(-266.62966,-85.37299)"
           fill="#3f3d56"
           id="path30" /><path
           d="m 585.62772,135.48441 a 0.585,0.585 0 0 1 -0.7633,-0.31646 l -1.51923,-3.67118 a 0.58428,0.58428 0 1 1 1.07975,-0.44683 l 1.51924,3.67117 a 0.585,0.585 0 0 1 -0.31646,0.7633 z"
           transform="translate(-266.62966,-85.37299)"
           fill="#3f3d56"
           id="path31" /><path
           d="m 594.17965,115.50467 a 0.585,0.585 0 0 1 0.31647,-0.76329 l 3.67117,-1.51924 a 0.58428325,0.58428325 0 0 1 0.44684,1.07976 l -3.67118,1.51924 a 0.585,0.585 0 0 1 -0.7633,-0.31647 z"
           transform="translate(-266.62966,-85.37299)"
           fill="#ffffff"
           id="path32" /><circle
           cx="333.81259"
           cy="27.540039"
           r="0.58428001"
           fill="#ffffff"
           id="circle32" /><path
           d="m 727.16164,372.75243 c -0.0737,0 -0.14734,-10e-4 -0.22174,-0.004 a 5.39058,5.39058 0 0 1 -4.33476,-2.46533 60.89743,60.89743 0 0 0 -12.81991,-13.88691 c -3.00863,-2.40473 -6.15264,-4.6407 -9.19285,-6.80336 -7.8435,-5.577 -15.23008,-10.82963 -19.33039,-18.08738 -8.93989,-15.826 1.58815,-37.86924 16.62843,-47.75491 16.86977,-11.08731 39.05927,-12.82644 60.5251,-13.05436 q 3.34633,-0.0354 6.69666,-0.0352 v 0 a 638.49363,638.49363 0 0 1 115.31057,10.54365 c 12.64861,2.3336 25.88842,5.19235 36.52788,12.13 10.57631,6.89663 17.00478,17.75712 16.37765,27.66928 -0.91566,14.47012 -16.255,25.28234 -30.22282,28.10915 -13.31348,2.69216 -27.14413,0.87283 -41.78627,-1.05393 -3.23256,-0.425 -6.57472,-0.86485 -9.87987,-1.247 -35.92,-4.15184 -103.398,8.6452 -106.25272,9.19213 l -2.83226,0.5422 -10.98934,14.14166 a 5.27374,5.27374 0 0 1 -4.20336,2.06467 z"
           transform="translate(-266.62966,-85.37299)"
           fill="#6c63ff"
           id="path33"
           style="fill:#069494;fill-opacity:1" /><path
           d="M 887.11731,302.16215 H 735.2958 a 3.3033,3.3033 0 0 1 0,-6.6066 h 151.82151 a 3.3033,3.3033 0 0 1 0,6.6066 z"
           transform="translate(-266.62966,-85.37299)"
           fill="#ffffff"
           id="path34" /><path
           d="M 887.11731,322.43821 H 735.2958 a 3.30331,3.30331 0 0 1 -0.007,-6.60661 h 151.8284 a 3.30331,3.30331 0 0 1 0,6.60661 z"
           transform="translate(-266.62966,-85.37299)"
           fill="#ffffff"
           id="path35" /><path
           d="M 752.98834,342.71379 H 735.2958 a 3.30331,3.30331 0 0 1 0,-6.60661 h 17.69254 a 3.30331,3.30331 0 0 1 0,6.60661 z"
           transform="translate(-266.62966,-85.37299)"
           fill="#ffffff"
           id="path36" /><circle
           cx="462.40689"
           cy="294.35217"
           r="16.05687"
           fill="#ffffff"
           id="circle36" /><path
           d="m 729.03656,395.97811 a 16.25289,16.25289 0 1 1 16.25289,-16.253 16.27142,16.27142 0 0 1 -16.25289,16.253 z"
           transform="translate(-266.62966,-85.37299)"
           fill="#3f3d56"
           id="path37" /><path
           d="m 727.83438,386.1424 c -0.0342,0 -0.0685,-0.001 -0.1027,-0.003 a 2.09978,2.09978 0 0 1 -1.55654,-0.80875 l -2.68338,-3.44982 a 2.10062,2.10062 0 0 1 0.3682,-2.94832 l 0.0966,-0.0751 a 2.1004,2.1004 0 0 1 2.94888,0.36847 1.53224,1.53224 0 0 0 2.32047,0.113 l 5.44831,-5.75193 a 2.10375,2.10375 0 0 1 2.9703,-0.0807 l 0.0893,0.0852 a 2.10038,2.10038 0 0 1 0.0802,2.97 l -8.45507,8.92456 a 2.09844,2.09844 0 0 1 -1.52453,0.65626 z"
           transform="translate(-266.62966,-85.37299)"
           fill="#ffffff"
           id="path38" /><path
           d="m 429.22188,172.166 -9.82351,-59.0756 a 4.577,4.577 0 0 1 3.76,-5.25986 l 44.6152,-7.41893 a 4.577,4.577 0 0 1 5.25983,3.76 l 9.8235,59.07561 a 4.577,4.577 0 0 1 -3.75994,5.25984 l -44.6152,7.41893 a 4.577,4.577 0 0 1 -5.25988,-3.75999 z"
           transform="translate(-266.62966,-85.37299)"
           fill="#3f3d56"
           id="path39" /><path
           d="m 429.677,153.75359 -6.31544,-37.97916 a 4.28642,4.28642 0 0 1 3.52132,-4.926 l 38.343,-6.376 a 4.28661,4.28661 0 0 1 4.92622,3.5213 l 8.74159,52.56925 a 4.28661,4.28661 0 0 1 -3.52154,4.926 l -23.7527,3.94977 A 19.09378,19.09378 0 0 1 429.677,153.75359 Z"
           transform="translate(-266.62966,-85.37299)"
           fill="#ffffff"
           id="path40" /><path
           d="m 431.33193,125.339 a 4.18859,4.18859 0 0 1 3.441,-4.81367 l 26.59846,-4.423 a 4.1840244,4.1840244 0 1 1 1.37265,8.2547 L 436.1456,128.78 a 4.1886,4.1886 0 0 1 -4.81367,-3.441 z"
           transform="translate(-266.62966,-85.37299)"
           fill="#6c63ff"
           id="path41"
           style="fill:#069494;fill-opacity:1" /><path
           d="m 433.46716,138.17959 a 4.1886,4.1886 0 0 1 3.441,-4.81367 l 26.59847,-4.423 a 4.1840244,4.1840244 0 0 1 1.37265,8.2547 l -26.59847,4.423 a 4.1886,4.1886 0 0 1 -4.81365,-3.44103 z"
           transform="translate(-266.62966,-85.37299)"
           fill="#6c63ff"
           id="path42"
           style="fill:#069494;fill-opacity:1" /><path
           d="m 435.60239,151.02023 a 4.1886,4.1886 0 0 1 3.441,-4.81367 l 26.59847,-4.423 a 4.1840244,4.1840244 0 0 1 1.37265,8.2547 l -26.59847,4.423 a 4.1886,4.1886 0 0 1 -4.81365,-3.44103 z"
           transform="translate(-266.62966,-85.37299)"
           fill="#6c63ff"
           id="path43"
           style="fill:#069494;fill-opacity:1" /><path
           d="m 662.32646,772.97087 0.70715,-15.90017 a 51.35277,51.35277 0 0 1 23.95261,-6.06333 c -11.504,9.40539 -10.06637,27.53575 -17.86583,40.18378 a 30.8888,30.8888 0 0 1 -22.65105,14.27412 l -9.627,5.89429 a 51.75978,51.75978 0 0 1 10.90965,-41.9429 49.99707,49.99707 0 0 1 9.18851,-8.53763 c 2.3057,6.07961 5.38596,12.09184 5.38596,12.09184 z"
           transform="translate(-266.62966,-85.37299)"
           fill="#f2f2f2"
           id="path44" /><path
           d="m 789.969,813.07379 a 1.54861,1.54861 0 0 1 -1.5533,1.55322 H 370.36555 a 1.55322,1.55322 0 1 1 0,-3.10644 h 418.05017 a 1.54866,1.54866 0 0 1 1.55328,1.55322 z"
           transform="translate(-266.62966,-85.37299)"
           fill="#cccccc"
           id="path45" /><path
           d="m 371.373,393.65688 c -7.41429,-0.14769 -47.23975,-1.29075 -53.77054,-1.00965 -0.36943,-1.2933 -12.74985,14.57255 -13.05093,14.67089 a 1.80834,1.80834 0 0 0 0.60481,2.90759 c 0.72777,0.44213 64.93166,-0.74561 65.70956,-0.59064 a 1.7859,1.7859 0 0 0 1.59378,-1.03833 l 0.42914,-0.96116 c 0.0446,-1.64431 0.58291,-10.048 0.0996,-11.48483 a 1.77814,1.77814 0 0 0 -1.61547,-2.49387 z"
           transform="translate(-266.62966,-85.37299)"
           fill="#3f3d56"
           id="path46" /><path
           d="m 372.88872,407.63407 c -0.37681,0.90548 -0.85882,2.04315 -2.02291,2.00137 l -65.03159,0.72981 a 1.7939,1.7939 0 0 1 -1.56527,-2.63308 z"
           transform="translate(-266.62966,-85.37299)"
           opacity="0.17"
           style="isolation:isolate"
           id="path47" /><path
           d="m 317.90631,392.45252 c -0.7,-1.21052 -18.08617,-87.2383 -19.53727,-87.95769 l -11.87032,-14.52105 -1.06094,-0.79779 c -1.47535,-0.81046 -5.01435,-0.26247 -4.69564,1.99087 v 0 c 2.7887,13.37007 20.7256,89.51848 21.11867,101.39039 l 2.15919,15.12428 a 1.86252,1.86252 0 0 0 2.29966,1.52983 3.58266,3.58266 0 0 0 2.87739,-2.07912 c 0.16181,-0.53373 9.52205,-14.36983 8.70926,-14.67972 z"
           transform="translate(-266.62966,-85.37299)"
           fill="#3f3d56"
           id="path48" /><path
           d="m 286.49585,289.9744 22.70338,117.16092 c -0.75925,1.92173 -4.312,3.26805 -5.13947,0.74718 -0.0145,-0.003 -23.29115,-116.64351 -23.31482,-116.71324 -0.248,-2.80713 4.39046,-2.89617 5.75091,-1.19486 z"
           transform="translate(-266.62966,-85.37299)"
           opacity="0.17"
           style="isolation:isolate"
           id="path49" /><polygon
           points="39.006,292.177 20.55,209.392 32.081,225.464 45.023,286.929 "
           fill="#6c63ff"
           id="polygon49"
           style="fill:#069494;fill-opacity:1" /><path
           d="m 363.93011,401.94452 3.19,0.13 a 12.53882,12.53882 0 0 1 0.46,-2.76 c 0.48,-2.28 0.91,-4.99 -1.08,-4.98 -1.35,-0.13 -1.81,1.58 -2.05,3.44 a 26.3201,26.3201 0 0 1 -0.52,4.17 z"
           transform="translate(-266.62966,-85.37299)"
           fill="#2f2e41"
           id="path50" /><path
           d="m 345.63012,397.65454 2.15,0.08 1.04,0.04 c -0.02,-1.14 0.51,-3.49 -0.78,-4.07 a 1.60015,1.60015 0 0 0 -0.65,-0.13 c -1.21,-0.07 -1.57,0.85 -1.68,1.91 -0.07,0.64 -0.04,1.32 -0.06,1.85 -4e-5,0.10998 -0.01,0.21997 -0.02,0.32 z"
           transform="translate(-266.62966,-85.37299)"
           fill="#2f2e41"
           id="path51" /><path
           d="m 339.26012,397.39453 2.16,0.09 1.03,0.04 c -0.02,-1.31 0.67,-4.17005 -1.43006,-4.21 -1.94,-0.11 -1.69,2.36 -1.74,3.76 2e-5,0.10998 -0.01,0.21997 -0.0199,0.32 z"
           transform="translate(-266.62966,-85.37299)"
           fill="#2f2e41"
           id="path52" /><path
           d="m 332.89013,397.14453 2.15,0.08 1.04,0.04 c -0.02,-1.3 0.67,-4.16 -1.43,-4.2 -1.94,-0.12 -1.69,2.35 -1.74,3.76 -4e-5,0.10998 -0.01,0.21997 -0.02,0.32 z"
           transform="translate(-266.62966,-85.37299)"
           fill="#2f2e41"
           id="path53" /><path
           d="m 326.52007,396.88452 2.16,0.09 1.03,0.04 c -0.02,-1.31 0.67,-4.16 -1.43,-4.21 -1.94,-0.11 -1.69,2.36 -1.74,3.76 2e-5,0.10998 -0.01,0.22003 -0.02,0.32 z"
           transform="translate(-266.62966,-85.37299)"
           fill="#2f2e41"
           id="path54" /><path
           d="m 320.15008,396.63452 2.15,0.08 1.04,0.04 c -0.02,-1.2 0.56,-3.71 -0.98,-4.14 h -0.01 a 1.46425,1.46425 0 0 0 -0.44,-0.06 1.5059,1.5059 0 0 0 -0.54,0.05 h -0.01 c -1.34,0.35 -1.15,2.45 -1.19,3.71 2e-5,0.10998 -0.01,0.22003 -0.02,0.32 z"
           transform="translate(-266.62966,-85.37299)"
           fill="#2f2e41"
           id="path55" /><path
           d="m 357.50011,395.95453 3.19,0.13 c 0,-0.12 0,-0.25 0.01,-0.4 a 13.33143,13.33143 0 0 0 0.04,-2.29 c -0.11,-0.84 -0.47,-1.5 -1.48,-1.52 -1.03,-0.06 -1.44,0.6 -1.6,1.45 a 3.11452,3.11452 0 0 0 -0.08,0.44 v 0.01 c -0.08,0.77998 -0.03,1.62 -0.08,2.18 z"
           transform="translate(-266.62966,-85.37299)"
           fill="#2f2e41"
           id="path56" /><path
           d="m 351.13012,395.69452 3.19,0.13 a 23.28057,23.28057 0 0 0 0.06,-2.58 c -0.09,-0.88 -0.44,-1.6 -1.49,-1.62 -1.06006,-0.07 -1.47,0.65 -1.63,1.54 -0.15002,0.86002 -0.07,1.88999 -0.13,2.53 z"
           transform="translate(-266.62966,-85.37299)"
           fill="#2f2e41"
           id="path57" /><path
           d="m 344.76012,395.44452 0.95,0.04 2.24,0.09 c -0.01,-0.48 0.0799,-1.18 0.09,-1.87 a 4.23306,4.23306 0 0 0 -0.02,-0.62 c -0.0799,-0.93 -0.41,-1.7 -1.5,-1.72 -1.11,-0.06 -1.5,0.71 -1.63995,1.65 -0.14007,0.83997 -0.0601,1.81001 -0.12005,2.43 z"
           transform="translate(-266.62966,-85.37299)"
           fill="#2f2e41"
           id="path58" /><path
           d="m 357.56011,401.69452 3.19,0.12 c -0.01,-1.3 0.67,-4.16 -1.43,-4.2 -2.10003,-0.13002 -1.64,2.77 -1.76,4.08 z"
           transform="translate(-266.62966,-85.37299)"
           fill="#2f2e41"
           id="path59" /><path
           d="m 351.19012,401.43451 3.19,0.13 c -0.01,-1.31 0.67,-4.17 -1.43,-4.21 -2.10003,-0.12001 -1.64001,2.78001 -1.76,4.08 z"
           transform="translate(-266.62966,-85.37299)"
           fill="#2f2e41"
           id="path60" /><path
           d="m 344.82012,401.18451 3.19,0.12 c -0.01,-0.93 0.34,-2.65 -0.23,-3.57 a 1.31957,1.31957 0 0 0 -1.2,-0.63 1.40551,1.40551 0 0 0 -0.93,0.23005 c -1.02,0.66996 -0.73002,2.78995 -0.83,3.84995 z"
           transform="translate(-266.62966,-85.37299)"
           fill="#2f2e41"
           id="path61" /><path
           d="m 338.45013,400.9245 3.19,0.13 c -0.01,-0.93 0.32995,-2.64 -0.22,-3.57 a 1.3234,1.3234 0 0 0 -1.21,-0.63995 1.3893,1.3893 0 0 0 -0.93,0.23 c -1.02001,0.68998 -0.73003,2.79996 -0.83,3.84995 z"
           transform="translate(-266.62966,-85.37299)"
           fill="#2f2e41"
           id="path62" /><path
           d="m 332.08007,400.6745 3.19,0.12 c -0.01,-0.93 0.34,-2.65 -0.23,-3.57 a 1.3193,1.3193 0 0 0 -1.2,-0.63 1.4051,1.4051 0 0 0 -0.93,0.23 c -1.01994,0.67001 -0.72996,2.79 -0.83,3.85 z"
           transform="translate(-266.62966,-85.37299)"
           fill="#2f2e41"
           id="path63" /><path
           d="m 325.71008,400.41455 3.19,0.13 c -0.01,-0.93 0.33,-2.64 -0.22,-3.57 a 1.31241,1.31241 0 0 0 -1.21,-0.64 1.38919,1.38919 0 0 0 -0.93,0.23 c -1.02001,0.68997 -0.72997,2.79995 -0.83,3.85 z"
           transform="translate(-266.62966,-85.37299)"
           fill="#2f2e41"
           id="path64" /><path
           d="m 319.34008,400.16455 3.19,0.12 c -0.01,-0.93006 0.33,-2.64 -0.23,-3.57 a 1.30821,1.30821 0 0 0 -1.2,-0.63 1.40491,1.40491 0 0 0 -0.93,0.23 c -1.02,0.67996 -0.72996,2.78994 -0.83,3.85 z"
           transform="translate(-266.62966,-85.37299)"
           fill="#2f2e41"
           id="path65" /></g></g></g></svg>
