<?xml version="1.0" encoding="UTF-8" standalone="no"?>
<!-- Created with Inkscape (http://www.inkscape.org/) -->

<svg
   width="793.70081"
   height="565.9079"
   viewBox="0 0 210 149.7298"
   version="1.1"
   id="svg1"
   xml:space="preserve"
   xmlns="http://www.w3.org/2000/svg"
   xmlns:svg="http://www.w3.org/2000/svg"><defs
     id="defs1" /><g
     id="layer1"><g
       id="g4"
       transform="matrix(0.26458333,0,0,0.26458333,-5.2822952e-5,-4.5591408e-6)"><g
         id="g6"
         transform="matrix(1.0029164,0,0,1.0029164,-3.2050009,10.142073)"
         style="stroke-width:0.997088"><g
           id="g7"
           transform="matrix(0.96620255,0,0,0.96620255,3.2007282,-10.112564)"
           style="stroke-width:1.02896"><g
             id="g8"><path
               d="m 938.36645,683.35934 c 7.18382,12.69813 1.0921,55.58546 1.0921,55.58546 0,0 -39.89068,-16.88557 -47.07316,-29.57842 a 26.41318,26.41318 0 0 1 45.98106,-26.007 z"
               transform="translate(-190.46477,-158)"
               fill="#f1f1f1"
               id="path1"
               style="stroke-width:1.02896" /><path
               d="m 940.037,738.8895 -0.84744,0.17853 c -8.16221,-38.77834 -36.66552,-65.075 -36.95246,-65.33607 l 0.58274,-0.64064 c 0.28896,0.26276 28.99561,26.73826 37.21716,65.79818 z"
               transform="translate(-190.46477,-158)"
               fill="#ffffff"
               id="path2"
               style="stroke-width:1.02896" /><path
               d="m 1003.6379,697.81816 c -9.74791,17.68309 -64.7065,41.63828 -64.7065,41.63828 0,0 -9.06086,-59.2631 0.68177,-76.94077 a 36.55623,36.55623 0 1 1 64.02473,35.30249 z"
               transform="translate(-190.46477,-158)"
               fill="#f1f1f1"
               id="path3"
               style="stroke-width:1.02896" /><path
               d="m 939.41646,740.09789 -0.82555,-0.869 c 39.76932,-37.7685 50.06448,-90.44509 50.16385,-90.97274 l 1.17793,0.2216 c -0.0998,0.53125 -10.45815,53.57733 -50.51623,91.62014 z"
               transform="translate(-190.46477,-158)"
               fill="#ffffff"
               id="path4"
               style="stroke-width:1.02896" /><path
               d="m 383.03037,563.91909 a 75.18955,75.18955 0 0 1 -18.63955,-2.41115 l -1.19992,-0.332 -1.11309,-0.55768 c -40.242,-20.17656 -74.192,-46.827 -100.90712,-79.21137 A 299.86458,299.86458 0 0 1 210.22153,390.93675 348.20978,348.20978 0 0 1 190.53067,268.27222 c 0.017,-0.87611 0.0314,-1.55256 0.0314,-2.01861 0,-20.28912 11.262,-38.0913 28.69121,-45.35357 13.33947,-5.55813 134.45539,-55.30526 143.20632,-58.89963 16.48038,-8.25772 34.062,-1.36535 36.87554,-0.16006 6.31094,2.58025 118.2752,48.375 142.47062,59.89621 24.93578,11.87415 31.5889,33.20566 31.5889,43.93787 0,48.58822 -8.415,93.99778 -25.01129,134.9674 a 312.51684,312.51684 0 0 1 -56.16213,90.51087 c -45.84677,51.59381 -91.7057,69.8841 -92.14828,70.0453 a 50.11,50.11 0 0 1 -17.04258,2.72109 z m -10.78453,-26.71374 c 3.97586,0.89138 13.12949,2.22845 19.0957,0.052 7.57929,-2.76408 45.96243,-22.668 81.83036,-63.03189 49.55709,-55.769 74.70242,-125.87542 74.73919,-208.37177 -0.0885,-1.67134 -1.27542,-13.59188 -17.06153,-21.10867 C 507.12331,233.44669 390.746,185.86014 389.5732,185.38052 l -0.32154,-0.13631 c -2.43886,-1.022 -10.20055,-3.1747 -15.55082,-0.371 l -1.07124,0.49943 c -1.2972,0.53279 -129.86317,53.33754 -143.57481,59.05064 -9.59168,3.99651 -13.00917,13.89729 -13.00917,21.83037 0,0.57973 -0.015,1.423 -0.0362,2.51294 -1.09585,56.44716 11.96634,195.34603 156.23641,268.43876 z"
               transform="translate(-190.46477,-158)"
               fill="#3f3d56"
               id="path5"
               style="stroke-width:1.02896" /><path
               d="m 367.78865,173.58611 c 0,0 -129.7345,53.28381 -143.63465,59.07553 -13.90015,5.79172 -20.85019,19.69184 -20.85019,33.592 0,13.90016 -10.42506,195.27813 164.48484,282.97404 0,0 15.87478,4.39241 27.91882,0 12.04404,-4.39241 164.9454,-78.52642 164.9454,-283.55325 0,0 0,-20.85018 -24.32522,-32.43362 -24.32522,-11.58344 -141.93358,-59.6547 -141.93358,-59.6547 0,0 -14.44282,-6.37089 -26.60542,0 z"
               transform="translate(-190.46477,-158)"
               fill="#6c63ff"
               id="path6"
               style="fill:#069494;fill-opacity:1;stroke-width:1.02896" /><path
               d="m 381.68877,215.28648 v 284.25025 c 0,0 -130.89284,-63.0066 -129.73449,-228.64973 z"
               transform="translate(-190.46477,-158)"
               opacity="0.1"
               id="path7"
               style="stroke-width:1.02896" /><polygon
               points="261.921,144.088 284.224,165.219 192.931,261.581 151.235,207.969 175.483,189.11 195.226,214.494 "
               fill="#ffffff"
               id="polygon7"
               style="stroke-width:1.02896" /><path
               d="M 1008.5352,742 H 627.53523 a 1,1 0 0 1 0,-2 h 380.99997 a 1,1 0 0 1 0,2 z"
               transform="translate(-190.46477,-158)"
               fill="#cacaca"
               id="path8"
               style="stroke-width:1.02896" /><polygon
               points="570.029,508.583 547.203,508.584 547.206,568.237 562.671,568.236 "
               fill="#ffb8b8"
               id="polygon8"
               style="stroke-width:1.02896" /><path
               d="m 733.72532,721.18754 30.45762,-10e-4 h 10e-4 a 19.411,19.411 0 0 1 19.41,19.40966 v 0.63075 l -49.86791,0.002 z"
               transform="translate(-190.46477,-158)"
               fill="#2f2e41"
               id="path9"
               style="stroke-width:1.02896" /><polygon
               points="622.029,508.583 599.203,508.584 599.206,568.237 614.671,568.236 "
               fill="#ffb8b8"
               id="polygon9"
               style="stroke-width:1.02896" /><path
               d="m 785.72532,721.18754 30.45762,-10e-4 h 10e-4 a 19.411,19.411 0 0 1 19.41,19.40966 v 0.63075 l -49.86791,0.002 z"
               transform="translate(-190.46477,-158)"
               fill="#2f2e41"
               id="path10"
               style="stroke-width:1.02896" /><polygon
               points="571.514,358.75 575.224,548 545.213,546.139 524.393,425.597 517.817,343.408 "
               fill="#2f2e41"
               id="polygon10"
               style="stroke-width:1.02896" /><path
               d="M 813.48315,484.9709 817.68877,709 l -35,-1 -7.56,-133.17025 -13.15012,-48.21688 -53.6962,-25.20436 8.76674,-60.27119 78.90049,-1.09584 z"
               transform="translate(-190.46477,-158)"
               fill="#2f2e41"
               id="path11"
               style="stroke-width:1.02896" /><circle
               cx="562.67566"
               cy="99.593887"
               r="26.838261"
               fill="#ffb8b8"
               id="circle11"
               style="stroke-width:1.02896" /><polygon
               points="591.239,294.095 539.734,295.192 533.16,158.211 546.933,140.995 584.936,137.738 589.047,143.966 600.006,174.649 "
               fill="#cccccc"
               id="polygon11"
               style="stroke-width:1.02896" /><path
               d="m 702.80325,319.499 -8.76674,-1.09584 c 0,0 -2.19169,1.09584 -3.2875,8.76671 -1.09581,7.67087 -14.24592,75.613 -14.24592,75.613 l 17.53342,83.28385 19.7251,-26.30016 -12.05417,-46.02526 12.05424,-46.0253 z"
               transform="translate(-190.46477,-158)"
               fill="#2f2e41"
               id="path12"
               style="stroke-width:1.02896" /><polygon
               points="647.127,249.166 631.785,318.204 616.443,293 620.826,265.604 618.635,241.496 610.964,227.249 624.114,160.404 630.689,160.404 "
               fill="#2f2e41"
               id="polygon12"
               style="stroke-width:1.02896" /><path
               d="m 768.99945,257.59388 -4.87969,-1.21993 c 0,0 -3.65974,-20.73866 -12.19924,-18.29882 -8.5395,2.43984 -30.498,4.8797 -30.498,-4.87969 0,-9.75939 20.73867,-18.29882 32.93783,-17.0789 12.19916,1.21992 27.77947,5.267 31.71794,23.17848 6.31357,28.713 -13.02638,35.96549 -13.02638,35.96549 l 0.32185,-1.04544 a 16.28235,16.28235 0 0 0 -4.37432,-16.62119 z"
               transform="translate(-190.46477,-158)"
               fill="#2f2e41"
               id="path13"
               style="stroke-width:1.02896" /><path
               d="m 695.13238,318.40319 35.06691,-14.24592 8.2188,-6.02712 24.65642,109.03608 11.5063,-112.32365 45.47733,23.56058 -15.34174,74.51711 -2.19168,28.49185 6.57505,23.01263 c 0,0 23.0126,16.43761 15.34174,33.971 -7.67086,17.53339 -16.43761,18.6293 -16.43761,18.6293 0,0 -37.25859,-35.06688 -39.45021,-43.83362 -2.19162,-8.76674 -5.47918,-24.10847 -5.47918,-24.10847 0,0 -18.6293,70.13377 -40.546,69.0379 -21.9167,-1.09587 -21.91679,-24.10848 -21.91679,-24.10848 l 5.47918,-24.10848 8.76674,-25.20432 -4.38337,-41.64192 z"
               transform="translate(-190.46477,-158)"
               fill="#2f2e41"
               id="path14"
               style="stroke-width:1.02896" /></g></g></g></g></g></svg>
